<svg width="200" height="216" viewBox="0 0 200 216" fill="none" xmlns="http://www.w3.org/2000/svg">
<path fill-rule="evenodd" clip-rule="evenodd" d="M68.355 19.7427C66.7512 20.1973 65.8197 21.8659 66.2743 23.4697L71.2134 40.8924C71.2227 40.9252 71.2325 40.9577 71.2428 40.99L77.0277 61.3966C77.5107 63.1005 79.2836 64.0903 80.9876 63.6072C82.6915 63.1242 83.6813 61.3513 83.1983 59.6473L78.2087 42.0465L83.2888 40.6064C84.8925 40.1518 85.824 38.4832 85.3694 36.8795L85.2673 36.5192C85.1536 36.1183 84.7365 35.8854 84.3355 35.9991L77.4389 37.9542C77.0379 38.0678 76.6208 37.8349 76.5071 37.434C76.3935 37.0331 76.6263 36.6159 77.0273 36.5023L83.9239 34.5472C84.3249 34.4335 84.5577 34.0164 84.4441 33.6154L84.0326 32.1639C83.919 31.763 83.5018 31.5301 83.1009 31.6438L76.2028 33.5992C75.8019 33.7129 75.3847 33.48 75.2711 33.0791C75.1574 32.6782 75.3903 32.261 75.7912 32.1473L82.6893 30.1919C83.0902 30.0782 83.3231 29.6611 83.2094 29.2601L82.796 27.8018C82.6824 27.4008 82.2652 27.1679 81.8643 27.2816L74.9688 29.2363C74.5679 29.35 74.1507 29.1171 74.0371 28.7162C73.9234 28.3152 74.1563 27.8981 74.5572 27.7844L81.4527 25.8297C81.8536 25.716 82.0865 25.2989 81.9728 24.898L81.5637 23.4548C81.4501 23.0539 81.0329 22.821 80.632 22.9347L73.7348 24.8899C73.3339 25.0035 72.9167 24.7707 72.8031 24.3697C72.6894 23.9688 72.9223 23.5516 73.3232 23.438L80.2204 21.4828C80.6213 21.3691 80.8542 20.952 80.7406 20.551L80.4303 19.4567C79.9757 17.853 78.3071 16.9214 76.7034 17.3761L68.355 19.7427Z" fill="url(#paint0_linear_405_15968)"/>
<path fill-rule="evenodd" clip-rule="evenodd" d="M73.5385 69.4927L73.5386 69.4933C73.5463 69.523 73.5542 69.5525 73.5623 69.582L79.3483 91.2325L90.8552 86.7052L84.9189 72.1801C85.8506 71.7053 86.7753 71.1557 87.5632 70.6572C88.9929 69.7526 89.8739 68.2152 89.9727 66.5263C90.102 64.3144 90.1741 61.1705 89.763 58.9288C89.477 57.3692 88.826 55.5313 88.1563 53.9035C87.1037 51.3449 84.6019 50.4899 82.3671 50.6794C80.1587 50.8667 77.672 52.127 76.2931 52.8258C76.2711 52.837 76.2493 52.848 76.2278 52.8589C74.9096 53.5268 73.6593 54.4952 72.6616 55.3831C71.195 56.6881 70.7486 58.7314 71.2412 60.6318L73.5015 69.35L73.5005 69.3505L73.5385 69.4927Z" fill="url(#paint1_linear_405_15968)"/>
<path d="M75.6561 86.3632L92.017 80.5561C92.4169 80.4141 92.8552 80.6296 92.9837 81.034C95.4434 88.7725 98.1522 100.192 101.992 102.923C104.631 104.8 112.176 102.556 119.533 98.4064C128.35 93.4326 130.097 86.5222 137.831 93.1244C155.563 105.007 109.705 132.675 93.5024 121.607C84.3895 115.383 77.0878 97.2875 75.169 87.1964C75.1003 86.8351 75.3095 86.4862 75.6561 86.3632Z" fill="#BE47DE"/>
<path d="M162.804 105.626C160.681 95.2319 151.485 87.8463 140.877 87.8463C128.749 87.8463 118.735 97.4249 117.716 109.509C116.305 126.228 113.629 150.73 108.73 176.145C108.403 177.842 108.614 179.639 109.627 181.04C120.557 196.137 152.605 194.121 161.789 185.372C168.392 178.77 170.504 147.456 165.185 117.84C164.564 114.379 163.694 109.981 162.804 105.626Z" fill="url(#paint2_linear_405_15968)"/>
<path d="M121.621 139.153C123.832 142.353 101.91 145.496 58.4136 130.664C57.8477 111.989 59.1304 75.2046 68.7887 77.4683C80.8616 80.2978 89.539 91.6162 95.3868 105.764C101.235 119.912 114.453 128.778 121.621 139.153Z" fill="url(#paint3_linear_405_15968)"/>
<path fill-rule="evenodd" clip-rule="evenodd" d="M82.3345 122.137C78.1922 128.777 70.821 133.196 62.4177 133.196C49.4629 133.196 38.9609 122.694 38.9609 109.739C38.9609 96.7844 49.4629 86.2824 62.4177 86.2824C73.7678 86.2824 83.2351 94.3437 85.4064 105.053C90.2103 105.116 94.0851 109.03 94.0851 113.849C94.0851 118.707 90.1469 122.645 85.2888 122.645C84.2524 122.645 83.2579 122.466 82.3345 122.137Z" fill="url(#paint4_linear_405_15968)"/>
<path d="M82.3177 119.598C82.4334 120.209 83.1915 120.42 83.584 119.938C87.2805 115.397 89.4966 109.603 89.4966 103.291C89.4966 88.7164 77.6819 76.9017 63.1077 76.9017C48.5335 76.9017 36.7188 88.7164 36.7188 103.291C36.7188 106.235 37.2009 109.066 38.0906 111.711C38.2477 112.178 38.806 112.352 39.2064 112.065C41.2258 110.617 46.6283 106.674 49.5462 103.877C52.7732 100.784 56.1911 96.1681 57.5805 94.2261C57.892 93.7907 58.5485 93.796 58.856 94.2342C60.3465 96.3579 64.2265 101.618 67.8441 104.254C72.9553 107.979 78.3403 109.429 79.9804 109.806C80.2842 109.876 80.5212 110.115 80.5792 110.422L82.3177 119.598Z" fill="#1C0820"/>
<path fill-rule="evenodd" clip-rule="evenodd" d="M58.4034 134.901C57.1846 134.901 56.0854 135.634 55.617 136.759L54.411 139.656C47.6894 142.377 42.3974 148.104 40.3931 155.42L37.9 164.519L31.7313 187.034C31.1016 189.332 32.3573 191.737 34.6449 192.404C50.6786 197.08 69.2363 197.385 86.4776 192.205C88.4689 191.607 89.7147 189.664 89.5292 187.593L87.0195 159.582C86.1648 150.042 79.7562 142.237 71.1557 139.24L70.1225 136.759C69.6541 135.634 68.5549 134.901 67.3362 134.901H58.4034Z" fill="url(#paint5_linear_405_15968)"/>
<path fill-rule="evenodd" clip-rule="evenodd" d="M109.229 131.349C107.411 129.689 105.033 127.267 105.262 126.452C105.604 125.234 106.951 123.246 108.539 123.517C109.187 123.627 110.723 124.554 112.604 125.688C115.343 127.34 118.811 129.432 121.328 130.086C123.01 130.523 124.474 132.961 125.133 135.902L140.715 137.596L140.29 149.102L122.611 146.417C122.005 146.898 121.291 147.281 120.459 147.542C112.486 150.035 100.267 151.424 98.6143 149.821C96.9614 148.218 93.9049 141.314 95.0307 139.177C95.8576 137.607 104.016 134.411 108.972 132.656C109.522 132.461 109.66 131.743 109.229 131.349Z" fill="url(#paint6_linear_405_15968)"/>
<path d="M137.584 150.654L138.101 135.654C138.116 135.227 138.482 134.898 138.909 134.921C147.132 135.358 160.73 134.105 162.355 132.175C165.373 128.59 156.13 118.215 150.094 109.915C144.057 101.615 133.116 88.5991 142.548 88.5991C169.146 89.3537 184.992 134.061 176.126 145.002C169.176 153.579 148.298 153.432 138.173 151.411C137.815 151.34 137.572 151.019 137.584 150.654Z" fill="#BE47DE"/>
<path fill-rule="evenodd" clip-rule="evenodd" d="M147.526 83.1181C142.765 89.3321 135.003 93.024 126.637 92.2172C113.742 90.9737 104.297 79.5121 105.54 66.6171C106.784 53.7221 118.245 44.2767 131.14 45.5202C142.437 46.6096 151.086 55.5403 152.221 66.4069C156.996 66.9313 160.476 71.1986 160.014 75.9947C159.547 80.8303 155.249 84.3723 150.414 83.906C149.383 83.8067 148.412 83.5334 147.526 83.1181Z" fill="url(#paint7_linear_405_15968)"/>
<path d="M147.749 80.5939C147.808 81.2114 148.541 81.4922 148.977 81.0511C153.095 76.8851 155.86 71.328 156.466 65.0423C157.865 50.5354 147.239 37.6411 132.732 36.2422C118.225 34.8432 105.331 45.4692 103.932 59.9761C103.641 62.9938 103.87 65.9417 104.546 68.7309C104.642 69.1239 105.034 69.3611 105.427 69.2666C107.696 68.7211 114.99 66.885 119.966 64.6818C124.979 62.4616 132.371 57.7737 134.587 56.3438C134.945 56.113 135.422 56.2183 135.651 56.5774C136.507 57.9204 138.537 61.0092 140.231 62.8458C142.098 64.8688 145.325 67.2877 146.286 67.9925C146.461 68.1215 146.575 68.3189 146.596 68.5359L147.749 80.5939Z" fill="#1C0820"/>
<circle cx="145.251" cy="28.4642" r="9.05465" transform="rotate(5.50833 145.251 28.4642)" fill="url(#paint8_linear_405_15968)"/>
<ellipse cx="126.525" cy="73.2716" rx="1.50911" ry="1.88639" transform="rotate(5.50833 126.525 73.2716)" fill="#1C0820"/>
<circle cx="118.157" cy="79.4817" r="0.754554" transform="rotate(5.50833 118.157 79.4817)" fill="#CC7582" stroke="#CC7582" stroke-width="0.377277"/>
<ellipse cx="114.509" cy="72.1174" rx="1.50911" ry="1.88639" transform="rotate(5.50833 114.509 72.1174)" fill="#1C0820"/>
<path d="M122.489 83.6923C122.489 83.6923 124.124 84.4186 126.092 83.6608C128.009 82.9228 128.751 81.643 128.751 81.643" stroke="#CC7582" stroke-width="1.50911" stroke-linecap="round"/>
<ellipse cx="61.6214" cy="111.613" rx="1.50911" ry="1.88639" fill="#1C0820"/>
<circle cx="53.5076" cy="118.217" r="0.754554" fill="#CC7582" stroke="#CC7582" stroke-width="0.377277"/>
<ellipse cx="49.5491" cy="111.613" rx="1.50911" ry="1.88639" fill="#1C0820"/>
<path d="M53.3653 122.315C53.3653 122.315 55.1229 123.398 57.4984 122.951C59.812 122.515 60.8655 121.279 60.8655 121.279" stroke="#CC7582" stroke-width="1.50911" stroke-linecap="round"/>
<rect x="142.783" y="113.5" width="13.582" height="4.52733" rx="0.754554" transform="rotate(5.38196 142.783 113.5)" fill="white"/>
<path d="M141.825 91.3598C142.082 92.2885 139.796 93.7354 136.719 94.587C133.642 95.4386 130.938 95.3724 130.681 94.4437C130.424 93.515 132.98 93.0456 136.057 92.194C139.134 91.3424 141.568 90.4312 141.825 91.3598Z" fill="#81249B"/>
<path d="M68.6557 136.456C68.6557 137.419 66.0672 138.204 62.8742 138.204C59.6812 138.204 57.0928 137.419 57.0928 136.456C57.0928 135.492 59.6812 135.721 62.8742 135.721C66.0672 135.721 68.6557 135.492 68.6557 136.456Z" fill="#95669F"/>
<defs>
<linearGradient id="paint0_linear_405_15968" x1="72.5292" y1="18.5594" x2="84.9787" y2="62.4759" gradientUnits="userSpaceOnUse">
<stop stop-color="#BE47DE" stop-opacity="0.4"/>
<stop offset="0.31" stop-color="#BE47DE" stop-opacity="0.877"/>
<stop offset="1" stop-color="#BE47DE"/>
</linearGradient>
<linearGradient id="paint1_linear_405_15968" x1="73.0458" y1="50.6541" x2="99.4613" y2="62.026" gradientUnits="userSpaceOnUse">
<stop offset="0.40048" stop-color="#FFD0BC"/>
<stop offset="1" stop-color="#FFABAA"/>
</linearGradient>
<linearGradient id="paint2_linear_405_15968" x1="138.39" y1="87.8463" x2="138.39" y2="192.169" gradientUnits="userSpaceOnUse">
<stop offset="0.63" stop-color="#BE47DE"/>
<stop offset="1" stop-color="#BE47DE" stop-opacity="0.3"/>
</linearGradient>
<linearGradient id="paint3_linear_405_15968" x1="99.3931" y1="111.069" x2="130.826" y2="150.884" gradientUnits="userSpaceOnUse">
<stop offset="0.115" stop-color="#1C0820"/>
<stop offset="1" stop-color="white"/>
</linearGradient>
<linearGradient id="paint4_linear_405_15968" x1="50.1306" y1="82.0099" x2="75.7253" y2="134.118" gradientUnits="userSpaceOnUse">
<stop offset="0.578738" stop-color="#FFD0BC"/>
<stop offset="1" stop-color="#FFABAA"/>
</linearGradient>
<linearGradient id="paint5_linear_405_15968" x1="60.5584" y1="134.146" x2="60.5584" y2="201.12" gradientUnits="userSpaceOnUse">
<stop offset="0.514211" stop-color="#D89BE9"/>
<stop offset="0.924227" stop-color="#D89BE9" stop-opacity="0.2"/>
</linearGradient>
<linearGradient id="paint6_linear_405_15968" x1="94.8522" y1="139.723" x2="137.118" y2="145.407" gradientUnits="userSpaceOnUse">
<stop offset="0.324631" stop-color="#FFD0BC"/>
<stop offset="0.811767" stop-color="#FFABAA"/>
</linearGradient>
<linearGradient id="paint7_linear_405_15968" x1="118.356" y1="40.5601" x2="140.81" y2="94.6862" gradientUnits="userSpaceOnUse">
<stop offset="0.578738" stop-color="#FFD0BC"/>
<stop offset="1" stop-color="#FFABAA"/>
</linearGradient>
<linearGradient id="paint8_linear_405_15968" x1="150.358" y1="16.014" x2="141.805" y2="37.5188" gradientUnits="userSpaceOnUse">
<stop stop-color="#1C0820" stop-opacity="0.4"/>
<stop offset="0.7" stop-color="#1C0820"/>
</linearGradient>
</defs>
</svg>
