<svg width="200" height="217" viewBox="0 0 200 217" fill="none" xmlns="http://www.w3.org/2000/svg">
<path fill-rule="evenodd" clip-rule="evenodd" d="M68.355 20.5839C66.7512 21.0385 65.8197 22.7071 66.2743 24.3108L71.2134 41.7336C71.2227 41.7664 71.2325 41.7989 71.2428 41.8312L77.0277 62.2378C77.5107 63.9417 79.2836 64.9315 80.9876 64.4484C82.6915 63.9654 83.6813 62.1925 83.1983 60.4885L78.2087 42.8877L83.2888 41.4476C84.8925 40.993 85.824 39.3244 85.3694 37.7206L85.2673 37.3604C85.1536 36.9595 84.7365 36.7266 84.3355 36.8403L77.4389 38.7953C77.0379 38.909 76.6208 38.6761 76.5071 38.2752C76.3935 37.8743 76.6263 37.4571 77.0273 37.3434L83.9239 35.3884C84.3249 35.2747 84.5577 34.8576 84.4441 34.4566L84.0326 33.0051C83.919 32.6042 83.5018 32.3713 83.1009 32.485L76.2028 34.4404C75.8019 34.5541 75.3847 34.3212 75.2711 33.9203C75.1574 33.5193 75.3903 33.1022 75.7912 32.9885L82.6893 31.0331C83.0902 30.9194 83.3231 30.5022 83.2094 30.1013L82.796 28.6429C82.6824 28.242 82.2652 28.0091 81.8643 28.1228L74.9688 30.0775C74.5679 30.1912 74.1507 29.9583 74.0371 29.5574C73.9234 29.1564 74.1563 28.7393 74.5572 28.6256L81.4527 26.6709C81.8536 26.5572 82.0865 26.1401 81.9728 25.7391L81.5637 24.296C81.4501 23.8951 81.0329 23.6622 80.632 23.7759L73.7348 25.7311C73.3339 25.8447 72.9167 25.6118 72.8031 25.2109C72.6894 24.81 72.9223 24.3928 73.3232 24.2792L80.2204 22.324C80.6213 22.2103 80.8542 21.7931 80.7406 21.3922L80.4303 20.2979C79.9757 18.6942 78.3071 17.7626 76.7034 18.2172L68.355 20.5839Z" fill="url(#paint0_linear_500_9089)"/>
<path fill-rule="evenodd" clip-rule="evenodd" d="M73.5385 70.3339L73.5386 70.3345C73.5463 70.3642 73.5542 70.3937 73.5623 70.4232L79.3483 92.0737L90.8552 87.5464L84.9189 73.0213C85.8506 72.5465 86.7753 71.9969 87.5632 71.4984C88.9929 70.5938 89.8739 69.0564 89.9727 67.3675C90.102 65.1556 90.1741 62.0116 89.763 59.7699C89.477 58.2103 88.826 56.3725 88.1563 54.7446C87.1037 52.1861 84.6019 51.3311 82.3671 51.5206C80.1587 51.7078 77.672 52.9681 76.2931 53.667C76.2711 53.6782 76.2493 53.6892 76.2278 53.7001C74.9096 54.3679 73.6593 55.3364 72.6616 56.2243C71.195 57.5293 70.7486 59.5726 71.2412 61.4729L73.5015 70.1911L73.5005 70.1917L73.5385 70.3339Z" fill="url(#paint1_linear_500_9089)"/>
<path d="M75.6561 87.2044L92.017 81.3972C92.4169 81.2553 92.8552 81.4708 92.9837 81.8751C95.4434 89.6137 98.1522 101.033 101.992 103.764C104.631 105.641 112.176 103.398 119.533 99.2476C128.35 94.2738 130.097 87.3634 137.831 93.9656C155.563 105.848 109.705 133.516 93.5024 122.449C84.3895 116.224 77.0878 98.1286 75.169 88.0376C75.1003 87.6763 75.3095 87.3274 75.6561 87.2044Z" fill="#999999"/>
<path d="M162.804 106.467C160.681 96.0731 151.485 88.6875 140.877 88.6875C128.749 88.6875 118.735 98.2661 117.716 110.35C116.305 127.069 113.629 151.571 108.73 176.986C108.403 178.683 108.614 180.48 109.627 181.881C120.557 196.978 152.605 194.962 161.789 186.214C168.392 179.611 170.504 148.297 165.185 118.681C164.564 115.22 163.694 110.822 162.804 106.467Z" fill="url(#paint2_linear_500_9089)"/>
<path d="M121.621 139.995C123.832 143.194 101.91 146.337 58.4136 131.506C57.8477 112.83 59.1304 76.0458 68.7887 78.3094C80.8616 81.139 89.539 92.4573 95.3868 106.605C101.235 120.753 114.453 129.619 121.621 139.995Z" fill="url(#paint3_linear_500_9089)"/>
<path fill-rule="evenodd" clip-rule="evenodd" d="M82.3345 122.978C78.1922 129.618 70.821 134.037 62.4177 134.037C49.4629 134.037 38.9609 123.535 38.9609 110.58C38.9609 97.6256 49.4629 87.1236 62.4177 87.1236C73.7678 87.1236 83.2351 95.1849 85.4064 105.894C90.2103 105.957 94.0851 109.871 94.0851 114.69C94.0851 119.548 90.1469 123.486 85.2888 123.486C84.2524 123.486 83.2579 123.307 82.3345 122.978Z" fill="url(#paint4_linear_500_9089)"/>
<path d="M82.3177 120.439C82.4334 121.05 83.1915 121.261 83.584 120.779C87.2805 116.238 89.4966 110.444 89.4966 104.132C89.4966 89.5576 77.6819 77.7428 63.1077 77.7428C48.5335 77.7428 36.7188 89.5576 36.7188 104.132C36.7188 107.076 37.2009 109.908 38.0906 112.552C38.2477 113.019 38.806 113.193 39.2064 112.906C41.2258 111.458 46.6283 107.515 49.5462 104.718C52.7732 101.625 56.1911 97.0093 57.5805 95.0673C57.892 94.6319 58.5485 94.6372 58.856 95.0753C60.3465 97.1991 64.2265 102.459 67.8441 105.095C72.9553 108.82 78.3403 110.27 79.9804 110.647C80.2842 110.717 80.5212 110.957 80.5792 111.263L82.3177 120.439Z" fill="#666666"/>
<path fill-rule="evenodd" clip-rule="evenodd" d="M58.4034 135.742C57.1846 135.742 56.0854 136.475 55.617 137.6L54.411 140.497C47.6894 143.218 42.3974 148.946 40.3931 156.261L37.9 165.36L31.7313 187.875C31.1016 190.173 32.3573 192.578 34.6449 193.245C50.6786 197.921 69.2363 198.226 86.4776 193.046C88.4689 192.448 89.7147 190.505 89.5292 188.434L87.0195 160.423C86.1648 150.884 79.7561 143.078 71.1557 140.082L70.1225 137.6C69.6541 136.475 68.5549 135.742 67.3362 135.742H58.4034Z" fill="url(#paint5_linear_500_9089)"/>
<path fill-rule="evenodd" clip-rule="evenodd" d="M109.229 132.191C107.411 130.53 105.033 128.108 105.262 127.294C105.604 126.075 106.951 124.087 108.539 124.358C109.187 124.468 110.723 125.395 112.604 126.53C115.343 128.181 118.811 130.273 121.328 130.927C123.01 131.365 124.474 133.803 125.133 136.743L140.715 138.438L140.29 149.943L122.611 147.259C122.005 147.739 121.291 148.123 120.459 148.383C112.486 150.876 100.267 152.265 98.6143 150.662C96.9614 149.059 93.9049 142.155 95.0307 140.018C95.8576 138.448 104.016 135.252 108.972 133.497C109.522 133.303 109.66 132.584 109.229 132.191Z" fill="url(#paint6_linear_500_9089)"/>
<path d="M137.584 151.495L138.101 136.495C138.116 136.068 138.482 135.739 138.909 135.762C147.132 136.199 160.73 134.946 162.355 133.016C165.373 129.432 156.13 119.057 150.094 110.756C144.057 102.456 133.116 89.4403 142.548 89.4403C169.146 90.1949 184.992 134.902 176.126 145.843C169.176 154.42 148.298 154.273 138.173 152.252C137.815 152.181 137.572 151.86 137.584 151.495Z" fill="#999999"/>
<path fill-rule="evenodd" clip-rule="evenodd" d="M147.526 83.9593C142.765 90.1733 135.003 93.8652 126.637 93.0584C113.742 91.8149 104.297 80.3533 105.54 67.4583C106.784 54.5633 118.245 45.1179 131.14 46.3614C142.437 47.4508 151.086 56.3815 152.221 67.248C156.996 67.7725 160.476 72.0398 160.014 76.8359C159.547 81.6715 155.249 85.2135 150.414 84.7472C149.383 84.6479 148.412 84.3746 147.526 83.9593Z" fill="url(#paint7_linear_500_9089)"/>
<path d="M147.749 81.4351C147.808 82.0526 148.541 82.3334 148.977 81.8923C153.095 77.7263 155.86 72.1692 156.466 65.8835C157.865 51.3766 147.239 38.4823 132.732 37.0833C118.225 35.6844 105.331 46.3104 103.932 60.8173C103.641 63.835 103.87 66.7829 104.546 69.572C104.642 69.9651 105.034 70.2023 105.427 70.1078C107.696 69.5623 114.99 67.7262 119.966 65.523C124.979 63.3028 132.371 58.6148 134.587 57.185C134.945 56.9542 135.422 57.0595 135.651 57.4186C136.507 58.7616 138.537 61.8504 140.231 63.687C142.098 65.71 145.325 68.1288 146.286 68.8336C146.461 68.9626 146.575 69.1601 146.596 69.3771L147.749 81.4351Z" fill="#666666"/>
<circle cx="145.251" cy="29.3053" r="9.05465" transform="rotate(5.50833 145.251 29.3053)" fill="url(#paint8_linear_500_9089)"/>
<ellipse cx="126.525" cy="74.1127" rx="1.50911" ry="1.88639" transform="rotate(5.50833 126.525 74.1127)" fill="#666666"/>
<circle cx="118.157" cy="80.3229" r="0.754554" transform="rotate(5.50833 118.157 80.3229)" fill="#999999" stroke="#999999" stroke-width="0.377277"/>
<ellipse cx="114.509" cy="72.9586" rx="1.50911" ry="1.88639" transform="rotate(5.50833 114.509 72.9586)" fill="#666666"/>
<path d="M122.489 84.5335C122.489 84.5335 124.124 85.2598 126.092 84.502C128.009 83.764 128.751 82.4842 128.751 82.4842" stroke="#999999" stroke-width="1.50911" stroke-linecap="round"/>
<ellipse cx="61.6214" cy="112.454" rx="1.50911" ry="1.88639" fill="#666666"/>
<circle cx="53.5076" cy="119.058" r="0.754554" fill="#999999" stroke="#999999" stroke-width="0.377277"/>
<ellipse cx="49.5491" cy="112.454" rx="1.50911" ry="1.88639" fill="#666666"/>
<path d="M53.3653 123.156C53.3653 123.156 55.1229 124.239 57.4984 123.792C59.812 123.356 60.8655 122.12 60.8655 122.12" stroke="#999999" stroke-width="1.50911" stroke-linecap="round"/>
<rect x="142.783" y="114.341" width="13.582" height="4.52733" rx="0.754554" transform="rotate(5.38196 142.783 114.341)" fill="white"/>
<path d="M141.825 92.201C142.082 93.1297 139.796 94.5766 136.719 95.4282C133.642 96.2798 130.938 96.2136 130.681 95.2849C130.424 94.3562 132.98 93.8867 136.057 93.0352C139.134 92.1836 141.568 91.2723 141.825 92.201Z" fill="#666666"/>
<path d="M68.6557 137.297C68.6557 138.261 66.0672 139.046 62.8742 139.046C59.6812 139.046 57.0928 138.261 57.0928 137.297C57.0928 136.333 59.6812 136.563 62.8742 136.563C66.0672 136.563 68.6557 136.333 68.6557 137.297Z" fill="#999999"/>
<defs>
<linearGradient id="paint0_linear_500_9089" x1="72.5292" y1="19.4006" x2="84.9787" y2="63.3171" gradientUnits="userSpaceOnUse">
<stop stop-color="#999999" stop-opacity="0.4"/>
<stop offset="0.31" stop-color="#999999" stop-opacity="0.877"/>
<stop offset="1" stop-color="#999999"/>
</linearGradient>
<linearGradient id="paint1_linear_500_9089" x1="73.0458" y1="51.4953" x2="99.4613" y2="62.8672" gradientUnits="userSpaceOnUse">
<stop offset="0.40048" stop-color="#F5F5F5"/>
<stop offset="1" stop-color="#DDDDDD"/>
</linearGradient>
<linearGradient id="paint2_linear_500_9089" x1="138.39" y1="88.6875" x2="138.39" y2="193.011" gradientUnits="userSpaceOnUse">
<stop offset="0.63" stop-color="#999999"/>
<stop offset="1" stop-color="#999999" stop-opacity="0.3"/>
</linearGradient>
<linearGradient id="paint3_linear_500_9089" x1="99.3931" y1="111.91" x2="130.826" y2="151.726" gradientUnits="userSpaceOnUse">
<stop offset="0.115" stop-color="#666666"/>
<stop offset="1" stop-color="white"/>
</linearGradient>
<linearGradient id="paint4_linear_500_9089" x1="50.1306" y1="82.8511" x2="75.7253" y2="134.959" gradientUnits="userSpaceOnUse">
<stop offset="0.578738" stop-color="#F5F5F5"/>
<stop offset="1" stop-color="#DDDDDD"/>
</linearGradient>
<linearGradient id="paint5_linear_500_9089" x1="60.5584" y1="134.987" x2="60.5584" y2="198.374" gradientUnits="userSpaceOnUse">
<stop offset="0.06" stop-color="#BBBBBB"/>
<stop offset="0.278443" stop-color="#BBBBBB"/>
<stop offset="0.517745" stop-color="#BBBBBB" stop-opacity="0.856693"/>
<stop offset="0.835" stop-color="#BBBBBB" stop-opacity="0.2"/>
</linearGradient>
<linearGradient id="paint6_linear_500_9089" x1="94.8522" y1="140.564" x2="137.118" y2="146.248" gradientUnits="userSpaceOnUse">
<stop offset="0.324631" stop-color="#F5F5F5"/>
<stop offset="0.811767" stop-color="#DDDDDD"/>
</linearGradient>
<linearGradient id="paint7_linear_500_9089" x1="118.356" y1="41.4013" x2="140.81" y2="95.5274" gradientUnits="userSpaceOnUse">
<stop offset="0.578738" stop-color="#F5F5F5"/>
<stop offset="1" stop-color="#DDDDDD"/>
</linearGradient>
<linearGradient id="paint8_linear_500_9089" x1="150.358" y1="16.8552" x2="141.805" y2="38.36" gradientUnits="userSpaceOnUse">
<stop stop-color="#666666" stop-opacity="0.4"/>
<stop offset="0.7" stop-color="#666666"/>
</linearGradient>
</defs>
</svg>
