<svg width="238" height="217" viewBox="0 0 238 217" fill="none" xmlns="http://www.w3.org/2000/svg">
<rect x="32.9492" y="95.323" width="167.152" height="99.3976" rx="4.30508" fill="url(#paint0_linear_500_8699)"/>
<path fill-rule="evenodd" clip-rule="evenodd" d="M38.3702 93.78C36.2676 88.6526 35.7289 81.2181 38.3631 78.9494C42.5025 75.3843 51.7188 75.4513 51.7188 75.4513C51.7188 75.4513 51.7812 63.9891 52.2208 57.3497C52.3958 54.7072 56.6197 54.8848 57.8305 55.831C59.6328 57.2396 58.9895 77.1865 58.9895 77.1865L60.0095 80.3372C60.0095 80.3372 61.8215 72.9903 63.5587 72.2634C65.2958 71.5365 69.3561 72.6486 69.0636 74.3839C68.7711 76.1192 63.5771 89.6217 63.5771 89.6217C62.0244 94.7671 59.8978 97.0699 57.4179 98.4409L60.8511 133.564L46.5245 135.09L43.8394 99.9338C41.4973 98.8593 39.6234 96.8359 38.3702 93.78Z" fill="url(#paint1_linear_500_8699)"/>
<path fill-rule="evenodd" clip-rule="evenodd" d="M197.167 103.418C198.257 100.223 199.763 94.8513 198.987 93.9539C197.892 92.6875 195.463 92.2661 193.865 93.5133C192.267 94.7604 184.831 108.613 184.761 110.684C184.702 112.406 184.927 114.359 185.536 116.216L172.028 134.125L182.829 143.553L196.624 123.557C197.039 123.523 197.468 123.472 197.909 123.402C208.195 121.776 222.755 117.124 223.64 114.238C224.524 111.352 222.695 105.066 220.135 104.272C217.925 103.587 204.615 103.723 197.945 104.398C197.41 104.452 196.993 103.927 197.167 103.418Z" fill="url(#paint2_linear_500_8699)"/>
<path d="M91.1785 134.488C93.1654 121.077 104.677 111.145 118.235 111.145C131.792 111.145 143.304 121.077 145.291 134.488L153.274 188.375H83.1953L91.1785 134.488Z" fill="url(#paint3_linear_500_8699)"/>
<path d="M40.1649 112.848L61.4621 110.628C61.9784 110.574 62.4407 110.949 62.4912 111.465C63.4148 120.926 63.0197 125.921 66.119 130.902C68.6218 134.925 74.8258 136.504 83.7281 130.902C94.0762 124.39 110.835 105.006 118.542 114.931C118.572 114.969 118.609 115.01 118.644 115.044C136.792 132.596 76.949 174.852 54.7991 155.848C44.363 146.895 40.7309 129.044 39.3284 113.862C39.2812 113.351 39.6549 112.901 40.1649 112.848Z" fill="#999999"/>
<path d="M191.411 137.905L175.113 123.685C174.707 123.331 174.086 123.39 173.758 123.817C167.392 132.085 163.071 139.428 156.399 138.475C150.106 137.576 143.491 124.822 137.002 118.637C134.965 116.696 132.815 115.168 131.192 115.062C124.398 114.614 127.697 118.857 120.822 120.775C106.341 123.724 132.474 166.85 158.812 163.526C175.274 161.448 183.329 150.317 191.549 139.172C191.84 138.778 191.78 138.227 191.411 137.905Z" fill="#999999"/>
<rect x="122.164" y="134.378" width="14.4806" height="4.82686" rx="0.93962" fill="white"/>
<path d="M127.302 115.321C127.302 116.49 123.26 117.441 118.274 117.441C113.288 117.441 109.246 116.639 109.246 115.321C109.246 114.003 113.288 113.646 118.274 113.646C123.26 113.646 127.302 114.153 127.302 115.321Z" fill="#666666"/>
<path fill-rule="evenodd" clip-rule="evenodd" d="M119.063 108.889C129.573 108.889 138.788 103.338 143.933 95.0071C145.163 95.4851 146.501 95.7474 147.9 95.7474C153.949 95.7474 158.853 90.8432 158.853 84.7937C158.853 78.7441 153.949 73.8399 147.9 73.8399C147.829 73.8399 147.759 73.8406 147.689 73.8419C144.985 60.5068 133.196 50.4693 119.063 50.4693C104.932 50.4693 93.144 60.5041 90.4373 73.8366C90.4187 73.8365 90.4001 73.8365 90.3815 73.8365C84.3319 73.8365 79.4277 78.7406 79.4277 84.7902C79.4277 90.8398 84.3319 95.7439 90.3815 95.7439C91.7323 95.7439 93.026 95.4994 94.2207 95.0522C99.3714 103.358 108.571 108.889 119.063 108.889Z" fill="url(#paint4_linear_500_8699)"/>
<path d="M144.329 91.5538C144.279 92.4365 145.334 92.866 145.869 92.1619C150.194 86.4661 152.769 78.8791 152.769 71.2856C152.769 53.1369 138.057 38.4244 119.908 38.4244C101.759 38.4244 87.0469 53.1369 87.0469 71.2856C87.0469 75.0286 87.0426 82.1431 92.0183 91.5066C92.4539 92.3264 93.6436 92.034 93.6844 91.1067L94.1092 81.4582C94.1268 81.0586 94.3951 80.7138 94.7773 80.5959C96.5958 80.0351 102.157 78.2822 109.642 75.568C117.185 72.8328 124.967 66.4205 127.534 64.1914C127.99 63.7955 128.7 63.9071 129.011 64.4244C130.288 66.543 133.396 71.4797 136.279 74.3165C139.303 77.2921 143.093 79.6857 144.437 80.4954C144.743 80.6797 144.926 81.0165 144.905 81.3731L144.329 91.5538Z" fill="#666666"/>
<circle cx="139.464" cy="28.8673" r="11.2754" fill="url(#paint5_linear_500_8699)"/>
<ellipse cx="126.575" cy="81.75" rx="1.87924" ry="2.34905" transform="rotate(5.50833 126.575 81.75)" fill="#666666"/>
<circle cx="117.36" cy="89.9931" r="0.93962" transform="rotate(5.50833 117.36 89.9931)" fill="#999999" stroke="#999999" stroke-width="0.46981"/>
<ellipse cx="110.128" cy="81.572" rx="1.87924" ry="2.34905" transform="rotate(5.50833 110.128 81.572)" fill="#666666"/>
<path d="M114.529 94.8845C114.529 94.8845 116.334 96.1921 118.927 95.778C121.453 95.3747 122.687 94.0075 122.687 94.0075" stroke="#999999" stroke-width="1.87924" stroke-linecap="round"/>
<path d="M32.9492 177.92H200.102V193.637C200.102 196.015 198.174 197.942 195.797 197.942H37.2543C34.8767 197.942 32.9492 196.015 32.9492 193.637V177.92Z" fill="url(#paint6_linear_500_8699)"/>
<path d="M32.9492 174.605H200.102V190.323C200.102 192.7 198.174 194.628 195.797 194.628H37.2543C34.8767 194.628 32.9492 192.7 32.9492 190.323V174.605Z" fill="url(#paint7_linear_500_8699)"/>
<ellipse cx="116.58" cy="184.674" rx="2.64685" ry="2.55746" fill="white"/>
<defs>
<linearGradient id="paint0_linear_500_8699" x1="116.525" y1="95.323" x2="116.525" y2="177.29" gradientUnits="userSpaceOnUse">
<stop stop-color="white"/>
<stop offset="1" stop-color="#F5F5F5"/>
</linearGradient>
<linearGradient id="paint1_linear_500_8699" x1="46.4518" y1="66.7982" x2="57.8129" y2="101.707" gradientUnits="userSpaceOnUse">
<stop offset="0.500588" stop-color="#F5F5F5"/>
<stop offset="1" stop-color="#DDDDDD"/>
</linearGradient>
<linearGradient id="paint2_linear_500_8699" x1="218.235" y1="99.9399" x2="177.514" y2="134.808" gradientUnits="userSpaceOnUse">
<stop offset="0.324631" stop-color="#F5F5F5"/>
<stop offset="0.811767" stop-color="#DDDDDD"/>
</linearGradient>
<linearGradient id="paint3_linear_500_8699" x1="118.235" y1="111.145" x2="118.235" y2="188.375" gradientUnits="userSpaceOnUse">
<stop offset="0.578845" stop-color="#999999"/>
<stop offset="1" stop-color="#999999" stop-opacity="0.4"/>
</linearGradient>
<linearGradient id="paint4_linear_500_8699" x1="103.474" y1="53.8506" x2="119.118" y2="116.868" gradientUnits="userSpaceOnUse">
<stop offset="0.559839" stop-color="#F5F5F5"/>
<stop offset="0.953633" stop-color="#DDDDDD"/>
</linearGradient>
<linearGradient id="paint5_linear_500_8699" x1="145.823" y1="13.3635" x2="135.173" y2="40.1427" gradientUnits="userSpaceOnUse">
<stop stop-color="#666666" stop-opacity="0.4"/>
<stop offset="0.7" stop-color="#666666"/>
</linearGradient>
<linearGradient id="paint6_linear_500_8699" x1="32.9492" y1="187.931" x2="200.102" y2="187.931" gradientUnits="userSpaceOnUse">
<stop stop-color="#DDDDDD"/>
<stop offset="1" stop-color="#DDDDDD"/>
</linearGradient>
<linearGradient id="paint7_linear_500_8699" x1="116.525" y1="174.605" x2="116.525" y2="194.628" gradientUnits="userSpaceOnUse">
<stop stop-color="#DDDDDD"/>
<stop offset="1" stop-color="#F5F5F5"/>
</linearGradient>
</defs>
</svg>
