<svg width="238" height="216" viewBox="0 0 238 216" fill="none" xmlns="http://www.w3.org/2000/svg">
<rect x="32.9492" y="94.4832" width="167.152" height="99.3976" rx="4.30508" fill="url(#paint0_linear_500_3296)"/>
<path fill-rule="evenodd" clip-rule="evenodd" d="M38.3702 92.9402C36.2676 87.8128 35.7289 80.3782 38.3631 78.1095C42.5025 74.5444 51.7188 74.6115 51.7188 74.6115C51.7188 74.6115 51.7812 63.1492 52.2208 56.5098C52.3958 53.8673 56.6197 54.0449 57.8305 54.9912C59.6328 56.3997 58.9895 76.3466 58.9895 76.3466L60.0095 79.4973C60.0095 79.4973 61.8215 72.1505 63.5587 71.4235C65.2958 70.6966 69.3561 71.8087 69.0636 73.544C68.7711 75.2793 63.5771 88.7818 63.5771 88.7818C62.0244 93.9273 59.8978 96.23 57.4179 97.601L60.8511 132.724L46.5245 134.25L43.8394 99.094C41.4973 98.0194 39.6234 95.9961 38.3702 92.9402Z" fill="url(#paint1_linear_500_3296)"/>
<path fill-rule="evenodd" clip-rule="evenodd" d="M197.167 102.578C198.257 99.3829 199.763 94.0114 198.987 93.114C197.892 91.8476 195.463 91.4262 193.865 92.6734C192.267 93.9206 184.831 107.773 184.761 109.844C184.702 111.566 184.927 113.519 185.536 115.376L172.028 133.285L182.829 142.713L196.624 122.717C197.039 122.683 197.468 122.632 197.909 122.562C208.195 120.936 222.755 116.284 223.64 113.398C224.524 110.512 222.695 104.226 220.135 103.432C217.925 102.747 204.615 102.883 197.945 103.558C197.41 103.612 196.993 103.087 197.167 102.578Z" fill="url(#paint2_linear_500_3296)"/>
<path fill-rule="evenodd" clip-rule="evenodd" d="M40.1657 112.008L61.463 109.788C61.9792 109.734 62.4416 110.109 62.492 110.626C62.6951 112.705 62.8344 114.569 62.9611 116.265V116.265C63.4108 122.282 63.7019 126.176 66.1198 130.062C68.6227 134.085 74.8266 135.665 83.729 130.062C86.4006 128.381 89.4996 125.842 92.7598 123.17L92.7599 123.17C94.8419 121.464 96.9895 119.705 99.1337 118.08C104.094 113.243 110.862 110.305 118.235 110.305C126.783 110.305 134.517 114.253 139.564 120.532C141.048 122.261 142.534 124.205 144.019 126.146C148.2 131.612 152.366 137.058 156.4 137.635C162.16 138.458 166.168 133.097 171.253 126.296C172.057 125.219 172.889 124.107 173.758 122.977C174.087 122.55 174.708 122.491 175.114 122.846L191.412 137.065C191.781 137.387 191.841 137.938 191.55 138.332L191.301 138.67C183.166 149.702 175.108 160.629 158.813 162.686C155.683 163.081 152.555 162.82 149.499 162.048L153.274 187.535H83.1956L87.9035 155.757C75.5801 160.757 62.7575 161.836 54.7999 155.009C44.3638 146.055 40.7317 128.204 39.3292 113.022C39.282 112.511 39.6557 112.061 40.1657 112.008Z" fill="url(#paint3_linear_500_3296)"/>
<rect x="122.164" y="133.538" width="14.4806" height="4.82686" rx="0.93962" fill="white"/>
<path d="M127.302 114.481C127.302 115.65 123.26 116.601 118.274 116.601C113.288 116.601 109.246 115.799 109.246 114.481C109.246 113.164 113.288 112.806 118.274 112.806C123.26 112.806 127.302 113.313 127.302 114.481Z" fill="#81249B"/>
<path fill-rule="evenodd" clip-rule="evenodd" d="M119.063 108.049C129.573 108.049 138.788 102.498 143.933 94.1672C145.163 94.6452 146.501 94.9075 147.9 94.9075C153.949 94.9075 158.853 90.0034 158.853 83.9538C158.853 77.9042 153.949 73 147.9 73C147.829 73 147.759 73.0007 147.689 73.002C144.985 59.6669 133.196 49.6294 119.063 49.6294C104.932 49.6294 93.144 59.6642 90.4373 72.9967C90.4187 72.9966 90.4001 72.9966 90.3815 72.9966C84.3319 72.9966 79.4277 77.9007 79.4277 83.9503C79.4277 89.9999 84.3319 94.9041 90.3815 94.9041C91.7323 94.9041 93.026 94.6595 94.2207 94.2123C99.3714 102.518 108.571 108.049 119.063 108.049Z" fill="url(#paint4_linear_500_3296)"/>
<path d="M144.329 90.714C144.279 91.5966 145.334 92.0261 145.869 91.322C150.194 85.6262 152.769 78.0392 152.769 70.4458C152.769 52.297 138.057 37.5845 119.908 37.5845C101.759 37.5845 87.0469 52.297 87.0469 70.4458C87.0469 74.1888 87.0426 81.3032 92.0183 90.6668C92.4539 91.4865 93.6436 91.1941 93.6844 90.2668L94.1092 80.6183C94.1268 80.2187 94.3951 79.8739 94.7773 79.756C96.5958 79.1952 102.157 77.4423 109.642 74.7281C117.185 71.9929 124.967 65.5806 127.534 63.3516C127.99 62.9556 128.7 63.0672 129.011 63.5845C130.288 65.7031 133.396 70.6398 136.279 73.4767C139.303 76.4522 143.093 78.8458 144.437 79.6555C144.743 79.8398 144.926 80.1766 144.905 80.5332L144.329 90.714Z" fill="#1C0820"/>
<circle cx="139.464" cy="28.0274" r="11.2754" fill="url(#paint5_linear_500_3296)"/>
<ellipse cx="126.575" cy="80.9102" rx="1.87924" ry="2.34905" transform="rotate(5.50833 126.575 80.9102)" fill="#1C0820"/>
<circle cx="117.36" cy="89.1532" r="0.93962" transform="rotate(5.50833 117.36 89.1532)" fill="#CC7582" stroke="#CC7582" stroke-width="0.46981"/>
<ellipse cx="110.128" cy="80.7321" rx="1.87924" ry="2.34905" transform="rotate(5.50833 110.128 80.7321)" fill="#1C0820"/>
<path d="M114.529 94.0446C114.529 94.0446 116.334 95.3522 118.927 94.9381C121.453 94.5348 122.687 93.1676 122.687 93.1676" stroke="#CC7582" stroke-width="1.87924" stroke-linecap="round"/>
<path d="M32.9492 177.08H200.102V192.797C200.102 195.175 198.174 197.102 195.797 197.102H37.2543C34.8767 197.102 32.9492 195.175 32.9492 192.797V177.08Z" fill="url(#paint6_linear_500_3296)"/>
<path d="M32.9492 173.766H200.102V189.483C200.102 191.861 198.174 193.788 195.797 193.788H37.2543C34.8767 193.788 32.9492 191.861 32.9492 189.483V173.766Z" fill="url(#paint7_linear_500_3296)"/>
<ellipse cx="116.58" cy="183.834" rx="2.64685" ry="2.55746" fill="white"/>
<defs>
<linearGradient id="paint0_linear_500_3296" x1="116.525" y1="94.4832" x2="116.525" y2="176.45" gradientUnits="userSpaceOnUse">
<stop stop-color="white"/>
<stop offset="1" stop-color="#EAD6EE"/>
</linearGradient>
<linearGradient id="paint1_linear_500_3296" x1="46.4518" y1="65.9583" x2="57.8129" y2="100.867" gradientUnits="userSpaceOnUse">
<stop offset="0.500588" stop-color="#FFD0BC"/>
<stop offset="1" stop-color="#FFABAA"/>
</linearGradient>
<linearGradient id="paint2_linear_500_3296" x1="218.235" y1="99.1" x2="177.514" y2="133.968" gradientUnits="userSpaceOnUse">
<stop offset="0.324631" stop-color="#FFD0BC"/>
<stop offset="0.811767" stop-color="#FFABAA"/>
</linearGradient>
<linearGradient id="paint3_linear_500_3296" x1="114.762" y1="109.864" x2="114.762" y2="184.585" gradientUnits="userSpaceOnUse">
<stop offset="0.45" stop-color="#BE47DE"/>
<stop offset="0.7" stop-color="#BE47DE" stop-opacity="0.751267"/>
<stop offset="1" stop-color="#BE47DE" stop-opacity="0.3"/>
</linearGradient>
<linearGradient id="paint4_linear_500_3296" x1="103.474" y1="53.0107" x2="119.118" y2="116.028" gradientUnits="userSpaceOnUse">
<stop offset="0.559839" stop-color="#FFD0BC"/>
<stop offset="0.953633" stop-color="#FFABAA"/>
</linearGradient>
<linearGradient id="paint5_linear_500_3296" x1="145.823" y1="12.5237" x2="135.173" y2="39.3028" gradientUnits="userSpaceOnUse">
<stop stop-color="#1C0820" stop-opacity="0.4"/>
<stop offset="0.7" stop-color="#1C0820"/>
</linearGradient>
<linearGradient id="paint6_linear_500_3296" x1="32.9492" y1="187.091" x2="200.102" y2="187.091" gradientUnits="userSpaceOnUse">
<stop stop-color="#E5A6F3"/>
<stop offset="1" stop-color="#E2B1ED"/>
</linearGradient>
<linearGradient id="paint7_linear_500_3296" x1="116.525" y1="193.788" x2="116.525" y2="173.766" gradientUnits="userSpaceOnUse">
<stop stop-color="#EAC9F1"/>
<stop offset="1" stop-color="#DDA9E7"/>
</linearGradient>
</defs>
</svg>
