<svg width="27" height="26" viewBox="0 0 27 26" fill="none" xmlns="http://www.w3.org/2000/svg">
<path fill-rule="evenodd" clip-rule="evenodd" d="M0.517578 13C0.517578 5.8203 6.33788 0 13.5176 0C20.6973 0 26.5176 5.8203 26.5176 13C26.5176 20.1797 20.6973 26 13.5176 26C6.33788 26 0.517578 20.1797 0.517578 13ZM18.3313 10.5812C18.6523 10.1318 18.5482 9.50728 18.0988 9.18627C17.6494 8.86526 17.0249 8.96935 16.7038 9.41876L12.39 15.4582L10.2247 13.2929C9.83416 12.9024 9.201 12.9024 8.81047 13.2929C8.41995 13.6834 8.41995 14.3166 8.81047 14.7071L11.8105 17.7071C12.0183 17.915 12.3071 18.0208 12.6001 17.9966C12.893 17.9723 13.1605 17.8204 13.3313 17.5812L18.3313 10.5812Z" fill="#B04FD6"/>
</svg>
