<svg width="16" height="16" viewBox="0 0 16 16" fill="none" xmlns="http://www.w3.org/2000/svg">
<path fill-rule="evenodd" clip-rule="evenodd" d="M15.3967 0.845578C15.0665 0.515341 14.5311 0.515341 14.2008 0.845578L7.99466 7.05174L1.79416 0.851235C1.46393 0.520998 0.928504 0.520997 0.598267 0.851235C0.268029 1.18147 0.268029 1.71689 0.598266 2.04713L6.79877 8.24763L0.598264 14.4481C0.268027 14.7784 0.268027 15.3138 0.598264 15.644C0.928501 15.9743 1.46392 15.9743 1.79416 15.644L7.99466 9.44353L14.2008 15.6497C14.5311 15.9799 15.0665 15.9799 15.3967 15.6497C15.727 15.3194 15.727 14.784 15.3967 14.4538L9.19056 8.24763L15.3967 2.04147C15.727 1.71124 15.727 1.17582 15.3967 0.845578Z" fill="#666666"/>
</svg>
