<svg width="52" height="64" viewBox="0 0 52 64" fill="none" xmlns="http://www.w3.org/2000/svg">
<path fill-rule="evenodd" clip-rule="evenodd" d="M12.9683 2.22134C12.413 2.37875 12.0905 2.95647 12.2479 3.51172L13.9579 9.54393C13.9617 9.55736 13.9658 9.57066 13.9701 9.58382L15.9712 16.6429C16.1384 17.2329 16.7523 17.5755 17.3422 17.4083C17.9322 17.2411 18.2748 16.6272 18.1076 16.0373L16.3801 9.94344L18.1387 9.44491C18.694 9.2875 19.0165 8.70978 18.8591 8.15453L18.8237 8.02973C18.7844 7.89092 18.6399 7.81029 18.5011 7.84964L16.1131 8.52659C15.9743 8.56594 15.8299 8.48531 15.7906 8.3465C15.7512 8.20768 15.8318 8.06325 15.9706 8.0239L18.3586 7.34696C18.4974 7.30761 18.5781 7.16318 18.5387 7.02437L18.3962 6.52177C18.3569 6.38296 18.2124 6.30233 18.0736 6.34168L15.6851 7.01878C15.5463 7.05813 15.4019 6.9775 15.3625 6.83869C15.3232 6.69988 15.4038 6.55545 15.5426 6.5161L17.9311 5.83899C18.0699 5.79964 18.1506 5.65521 18.1112 5.5164L17.9681 5.01165C17.9288 4.87284 17.7844 4.79221 17.6455 4.83156L15.2584 5.50827C15.1196 5.54762 14.9752 5.46699 14.9358 5.32818C14.8965 5.18937 14.9771 5.04494 15.1159 5.00559L17.503 4.32888C17.6419 4.28953 17.7225 4.1451 17.6831 4.00628L17.5415 3.50668C17.5022 3.36787 17.3577 3.28724 17.2189 3.32659L14.831 4.00351C14.6922 4.04286 14.5478 3.96223 14.5084 3.82342C14.4691 3.6846 14.5497 3.54017 14.6885 3.50082L17.0764 2.8239C17.2152 2.78455 17.2959 2.64012 17.2565 2.50131L17.1491 2.12232C16.9917 1.56707 16.4139 1.24456 15.8587 1.40196L12.9683 2.22134Z" fill="url(#paint0_linear_639_2945)"/>
<path fill-rule="evenodd" clip-rule="evenodd" d="M18.7044 20.3763L20.7597 25.4052L16.7757 26.9727L14.751 19.3966L14.7515 19.3963L13.969 16.3779C13.7984 15.7199 13.953 15.0125 14.4607 14.5606C14.8062 14.2532 15.239 13.9179 15.6954 13.6867C15.7029 13.6829 15.7104 13.6791 15.7181 13.6752C16.1955 13.4333 17.0564 12.9969 17.821 12.9321C18.5948 12.8665 19.4609 13.1625 19.8254 14.0484C20.0573 14.612 20.2826 15.2483 20.3817 15.7882C20.524 16.5644 20.499 17.6529 20.4543 18.4187C20.4201 19.0035 20.115 19.5357 19.62 19.8489C19.3472 20.0215 19.027 20.2119 18.7044 20.3763Z" fill="url(#paint1_linear_639_2945)"/>
<path d="M15.4959 25.2865L21.1605 23.2759C21.2989 23.2268 21.4507 23.3014 21.4952 23.4414C22.3468 26.1206 23.2846 30.0745 24.6141 31.02C25.5277 31.6698 28.1401 30.893 30.6873 29.4562C33.74 27.7341 34.3447 25.3415 37.0226 27.6274C43.1618 31.7414 27.2846 41.3208 21.6747 37.4889C18.5196 35.3337 15.9916 29.0687 15.3273 25.5749C15.3035 25.4499 15.3759 25.329 15.4959 25.2865Z" fill="#BE47DE"/>
<path d="M45.6696 31.9561C44.9343 28.3574 41.7507 25.8003 38.0776 25.8003C33.8789 25.8003 30.4117 29.1166 30.0587 33.3005C29.5704 39.0889 28.6436 47.5722 26.9478 56.3715C26.8345 56.9592 26.9074 57.5814 27.2584 58.0662C31.0424 63.2933 42.1382 62.5952 45.3181 59.5664C47.604 57.2805 48.3353 46.4387 46.494 36.1848C46.2788 34.9865 45.9777 33.4638 45.6696 31.9561Z" fill="url(#paint2_linear_639_2945)"/>
<path d="M31.4114 43.5639C32.1768 44.6718 24.587 45.76 9.52734 40.6248C9.33141 34.1589 9.77552 21.4232 13.1195 22.2069C17.2994 23.1866 20.3037 27.1053 22.3284 32.0037C24.3531 36.902 28.9296 39.9718 31.4114 43.5639Z" fill="url(#paint3_linear_639_2945)"/>
<path fill-rule="evenodd" clip-rule="evenodd" d="M17.808 37.6725C16.3738 39.9717 13.8217 41.5015 10.9124 41.5015C6.42707 41.5015 2.79102 37.8654 2.79102 33.3801C2.79102 28.8948 6.42707 25.2588 10.9124 25.2588C14.8421 25.2588 18.1199 28.0499 18.8717 31.7578C20.5348 31.7797 21.8763 33.1347 21.8763 34.803C21.8763 36.485 20.5128 37.8485 18.8308 37.8485C18.472 37.8485 18.1277 37.7865 17.808 37.6725Z" fill="url(#paint4_linear_639_2945)"/>
<path d="M17.8031 36.7933C17.8432 37.0048 18.1057 37.078 18.2416 36.9111C19.5214 35.3388 20.2887 33.3326 20.2887 31.1473C20.2887 26.1013 16.1981 22.0107 11.1521 22.0107C6.10619 22.0107 2.01562 26.1013 2.01562 31.1473C2.01562 32.1666 2.18256 33.147 2.49058 34.0625C2.54498 34.2242 2.73827 34.2845 2.8769 34.1851C3.57607 33.6838 5.44655 32.3186 6.45681 31.3503C7.57408 30.2795 8.75745 28.6813 9.2385 28.0089C9.34634 27.8582 9.57365 27.86 9.68012 28.0117C10.1961 28.747 11.5395 30.5682 12.792 31.4809C14.5616 32.7705 16.4261 33.2724 16.9939 33.4031C17.0991 33.4273 17.1811 33.5102 17.2012 33.6162L17.8031 36.7933Z" fill="#1C0820"/>
<path fill-rule="evenodd" clip-rule="evenodd" d="M9.523 42.0913C9.10103 42.0913 8.72047 42.3451 8.55828 42.7347L8.14074 43.7376C5.81358 44.6799 3.98139 46.6628 3.28744 49.1956L2.42426 52.346L0.288491 60.1412C0.0704822 60.9369 0.505223 61.7694 1.29725 62.0004C6.84854 63.6193 13.2737 63.725 19.2431 61.9316C19.9325 61.7245 20.3639 61.0516 20.2996 60.3346L19.4307 50.6367C19.1348 47.3337 16.9159 44.6313 13.9381 43.5938L13.5805 42.7347C13.4183 42.3451 13.0377 42.0913 12.6158 42.0913H9.523Z" fill="url(#paint5_linear_639_2945)"/>
<path fill-rule="evenodd" clip-rule="evenodd" d="M27.1213 40.8621C26.492 40.2873 25.6687 39.4485 25.7478 39.1666C25.8662 38.7448 26.3324 38.0566 26.8826 38.1503C27.1066 38.1885 27.6386 38.5093 28.2899 38.9021C29.2381 39.4739 30.439 40.1982 31.3104 40.4247C31.8927 40.5761 32.3996 41.4202 32.6278 42.4382L38.0227 43.025L37.8753 47.0084L31.7546 46.079C31.5445 46.2453 31.2973 46.3781 31.0094 46.4682C28.249 47.3315 24.0185 47.8125 23.4462 47.2575C22.8739 46.7024 21.8157 44.3121 22.2055 43.5721C22.4918 43.0285 25.3164 41.9221 27.0325 41.3145C27.2228 41.2471 27.2704 40.9983 27.1213 40.8621Z" fill="url(#paint6_linear_639_2945)"/>
<path d="M36.9372 47.5461L37.1163 42.3526C37.1214 42.2048 37.248 42.0908 37.3957 42.0987C40.2428 42.2503 44.9507 41.8163 45.5135 41.148C46.5585 39.9071 43.3582 36.3149 41.2683 33.4412C39.1783 30.5675 35.3902 26.061 38.6558 26.061C47.8647 26.3223 53.3509 41.8011 50.2813 45.5892C47.875 48.5586 40.6467 48.5078 37.141 47.8082C37.017 47.7834 36.9329 47.6724 36.9372 47.5461Z" fill="#BE47DE"/>
<path fill-rule="evenodd" clip-rule="evenodd" d="M40.3779 24.1632C38.7297 26.3146 36.0422 27.5928 33.1458 27.3135C28.6812 26.8829 25.411 22.9146 25.8415 18.4501C26.2721 13.9855 30.2404 10.7152 34.7049 11.1458C38.616 11.5229 41.6105 14.615 42.0035 18.3773C43.6567 18.5589 44.8617 20.0363 44.7016 21.6968C44.5401 23.3711 43.052 24.5974 41.3778 24.4359C41.0211 24.4016 40.6848 24.3069 40.3779 24.1632Z" fill="url(#paint7_linear_639_2945)"/>
<path d="M40.4558 23.2889C40.4762 23.5027 40.7299 23.5999 40.8809 23.4472C42.3068 22.0048 43.2639 20.0808 43.4738 17.9045C43.9581 12.8819 40.2791 8.41753 35.2564 7.93317C30.2338 7.44881 25.7695 11.1278 25.2851 16.1505C25.1843 17.1953 25.2637 18.2159 25.4979 19.1816C25.5309 19.3177 25.6666 19.3998 25.8027 19.3671C26.5884 19.1782 29.1137 18.5425 30.8364 17.7797C32.5724 17.011 35.1315 15.3879 35.8989 14.8929C36.0228 14.813 36.188 14.8494 36.2672 14.9738C36.5635 15.4387 37.2661 16.5081 37.8529 17.144C38.4991 17.8445 39.6165 18.6819 39.9491 18.9259C40.01 18.9706 40.0493 19.039 40.0565 19.1141L40.4558 23.2889Z" fill="#1C0820"/>
<circle cx="39.591" cy="5.24025" r="3.13495" transform="rotate(5.50833 39.591 5.24025)" fill="url(#paint8_linear_639_2945)"/>
<ellipse cx="33.1078" cy="20.754" rx="0.522492" ry="0.653115" transform="rotate(5.50833 33.1078 20.754)" fill="#1C0820"/>
<circle cx="30.2097" cy="22.9038" r="0.261246" transform="rotate(5.50833 30.2097 22.9038)" fill="#CC7582" stroke="#CC7582" stroke-width="0.130623"/>
<ellipse cx="28.9457" cy="20.3541" rx="0.522492" ry="0.653115" transform="rotate(5.50833 28.9457 20.3541)" fill="#1C0820"/>
<path d="M31.7091 24.3618C31.7091 24.3618 32.2754 24.6133 32.9568 24.3509C33.6205 24.0954 33.8772 23.6523 33.8772 23.6523" stroke="#CC7582" stroke-width="0.522492" stroke-linecap="round"/>
<ellipse cx="10.6377" cy="34.0291" rx="0.522492" ry="0.653115" fill="#1C0820"/>
<circle cx="7.82851" cy="36.3153" r="0.261246" fill="#CC7582" stroke="#CC7582" stroke-width="0.130623"/>
<ellipse cx="6.45804" cy="34.0291" rx="0.522492" ry="0.653115" fill="#1C0820"/>
<path d="M7.77961 37.7342C7.77961 37.7342 8.38815 38.1092 9.2106 37.9543C10.0116 37.8034 10.3764 37.3756 10.3764 37.3756" stroke="#CC7582" stroke-width="0.522492" stroke-linecap="round"/>
<rect x="38.7383" y="34.6821" width="4.70243" height="1.56748" rx="0.261246" transform="rotate(5.38196 38.7383 34.6821)" fill="white"/>
<path d="M38.4049 27.0168C38.4939 27.3384 37.7027 27.8393 36.6372 28.1342C35.5718 28.429 34.6356 28.4061 34.5466 28.0845C34.4576 27.763 35.3425 27.6005 36.4079 27.3056C37.4734 27.0108 38.316 26.6953 38.4049 27.0168Z" fill="#81249B"/>
<defs>
<linearGradient id="paint0_linear_639_2945" x1="14.4135" y1="1.81165" x2="18.7238" y2="17.0167" gradientUnits="userSpaceOnUse">
<stop stop-color="#BE47DE" stop-opacity="0.4"/>
<stop offset="0.31" stop-color="#BE47DE" stop-opacity="0.877"/>
<stop offset="1" stop-color="#BE47DE"/>
</linearGradient>
<linearGradient id="paint1_linear_639_2945" x1="14.5937" y1="12.9233" x2="23.7395" y2="16.8606" gradientUnits="userSpaceOnUse">
<stop offset="0.40048" stop-color="#FFD0BC"/>
<stop offset="1" stop-color="#FFABAA"/>
</linearGradient>
<linearGradient id="paint2_linear_639_2945" x1="37.2166" y1="25.8003" x2="37.2166" y2="61.9196" gradientUnits="userSpaceOnUse">
<stop offset="0.63" stop-color="#BE47DE"/>
<stop offset="1" stop-color="#BE47DE" stop-opacity="0.3"/>
</linearGradient>
<linearGradient id="paint3_linear_639_2945" x1="23.7155" y1="33.8404" x2="34.5985" y2="47.6255" gradientUnits="userSpaceOnUse">
<stop offset="0.115" stop-color="#1C0820"/>
<stop offset="1" stop-color="white"/>
</linearGradient>
<linearGradient id="paint4_linear_639_2945" x1="6.65823" y1="23.7795" x2="15.5198" y2="41.8208" gradientUnits="userSpaceOnUse">
<stop offset="0.578738" stop-color="#FFD0BC"/>
<stop offset="1" stop-color="#FFABAA"/>
</linearGradient>
<linearGradient id="paint5_linear_639_2945" x1="10.2692" y1="41.8301" x2="10.2692" y2="65.0183" gradientUnits="userSpaceOnUse">
<stop offset="0.514211" stop-color="#D89BE9"/>
<stop offset="0.924227" stop-color="#D89BE9" stop-opacity="0.2"/>
</linearGradient>
<linearGradient id="paint6_linear_639_2945" x1="22.1437" y1="43.7612" x2="36.7772" y2="45.7291" gradientUnits="userSpaceOnUse">
<stop offset="0.324631" stop-color="#FFD0BC"/>
<stop offset="0.811767" stop-color="#FFABAA"/>
</linearGradient>
<linearGradient id="paint7_linear_639_2945" x1="30.2786" y1="9.42845" x2="38.0529" y2="28.1683" gradientUnits="userSpaceOnUse">
<stop offset="0.578738" stop-color="#FFD0BC"/>
<stop offset="1" stop-color="#FFABAA"/>
</linearGradient>
<linearGradient id="paint8_linear_639_2945" x1="41.3592" y1="0.929689" x2="38.3979" y2="8.3752" gradientUnits="userSpaceOnUse">
<stop stop-color="#1C0820" stop-opacity="0.4"/>
<stop offset="0.7" stop-color="#1C0820"/>
</linearGradient>
</defs>
</svg>
