<svg width="48" height="21" viewBox="0 0 48 21" fill="none" xmlns="http://www.w3.org/2000/svg">
<path fill-rule="evenodd" clip-rule="evenodd" d="M37.9851 20.7476H10C4.47761 20.7476 0 16.2699 0 10.7476C0 5.22517 4.47761 0.747559 10 0.747559H38.0099C43.5323 0.747559 48.0099 5.22517 48.0099 10.7476C48.0099 16.2699 43.5075 20.7476 37.9851 20.7476Z" fill="#FFEB00"/>
<path fill-rule="evenodd" clip-rule="evenodd" d="M11.2192 5.54883C8.20929 5.54883 5.77148 7.46425 5.77148 9.85231C5.77148 11.3697 6.79139 12.713 8.3088 13.4842L7.78641 15.4244C7.76153 15.4742 7.78641 15.5488 7.83616 15.5986C7.86104 15.6235 7.91079 15.6483 7.93566 15.6483C7.96054 15.6483 8.01029 15.6235 8.03517 15.6235L10.2491 14.1309C10.5725 14.1807 10.8959 14.2055 11.2441 14.2055C14.2541 14.2055 16.6919 12.2652 16.6919 9.90206C16.6919 7.46425 14.2541 5.54883 11.2192 5.54883Z" fill="#111111"/>
<path d="M21.2947 13.4346V16.2207H19.3047V5.94703H20.6977L20.9465 6.59379C21.3694 6.17091 22.0161 5.72314 23.036 5.72314C24.9763 5.72314 25.8967 7.16593 25.8967 9.52911C25.8967 11.9918 24.4788 13.559 22.439 13.559C22.041 13.5838 21.7425 13.559 21.2947 13.4346ZM21.2947 7.61369V12.0416C21.3942 12.0664 21.6679 12.0913 21.9415 12.0913C23.3594 12.0913 23.9067 11.0963 23.9067 9.52911C23.9067 8.16096 23.5335 7.34006 22.4141 7.34006C22.0161 7.34006 21.6181 7.43956 21.2947 7.61369Z" fill="#111111"/>
<path d="M30.1998 8.85704H31.3192V8.60828C31.3192 7.78739 30.8466 7.41425 30.0506 7.41425C29.4287 7.41425 28.6575 7.58838 28.0108 7.91176L27.4635 6.59336C28.16 6.09584 29.2545 5.77246 30.2247 5.77246C32.1152 5.77246 33.16 6.76749 33.16 8.68291V13.3844H31.767L31.568 12.7625C30.772 13.3346 30.0257 13.5834 29.3789 13.5834C27.9361 13.5834 27.1152 12.7128 27.1152 11.2451C27.1152 9.67793 28.1849 8.85704 30.1998 8.85704ZM31.3441 11.469V10.1008H30.4237C29.4038 10.1008 28.8814 10.474 28.8814 11.1953C28.8814 11.7426 29.155 12.0162 29.752 12.0162C30.2993 12.0411 30.9958 11.7675 31.3441 11.469Z" fill="#111111"/>
<path d="M39.1807 12.6136C38.4842 14.4544 37.6633 15.7977 36.4444 16.544L35.2255 15.4246C35.922 14.8027 36.4444 14.2057 36.8673 13.4097L34.2305 6.2206L36.1956 5.69822L37.8872 11.5191L39.5538 5.67334L41.4941 6.2206L39.1807 12.6136Z" fill="#111111"/>
</svg>
