<svg width="49" height="21" viewBox="0 0 49 21" fill="none" xmlns="http://www.w3.org/2000/svg">
<path fill-rule="evenodd" clip-rule="evenodd" d="M38.4929 20.7476H10.5078C4.98542 20.7476 0.507812 16.2699 0.507812 10.7476C0.507812 5.22517 4.98542 0.747559 10.5078 0.747559H38.5178C44.0401 0.747559 48.5178 5.22517 48.5178 10.7476C48.5178 16.2699 44.0153 20.7476 38.4929 20.7476Z" fill="#F5F5F5"/>
<path fill-rule="evenodd" clip-rule="evenodd" d="M11.7271 5.54883C8.71711 5.54883 6.2793 7.46425 6.2793 9.85231C6.2793 11.3697 7.2992 12.713 8.81661 13.4842L8.29422 15.4244C8.26935 15.4742 8.29422 15.5488 8.34397 15.5986C8.36885 15.6235 8.4186 15.6483 8.44348 15.6483C8.46835 15.6483 8.5181 15.6235 8.54298 15.6235L10.7569 14.1309C11.0803 14.1807 11.4037 14.2055 11.7519 14.2055C14.7619 14.2055 17.1997 12.2652 17.1997 9.90206C17.1997 7.46425 14.7619 5.54883 11.7271 5.54883Z" fill="#111111"/>
<path d="M21.8025 13.4346V16.2207H19.8125V5.94703H21.2055L21.4543 6.59379C21.8772 6.17091 22.5239 5.72314 23.5438 5.72314C25.4841 5.72314 26.4045 7.16593 26.4045 9.52911C26.4045 11.9918 24.9866 13.559 22.9468 13.559C22.5488 13.5838 22.2503 13.559 21.8025 13.4346ZM21.8025 7.61369V12.0416C21.9021 12.0664 22.1757 12.0913 22.4493 12.0913C23.8672 12.0913 24.4145 11.0963 24.4145 9.52911C24.4145 8.16096 24.0414 7.34006 22.922 7.34006C22.5239 7.34006 22.1259 7.43956 21.8025 7.61369Z" fill="#111111"/>
<path d="M30.7076 8.85704H31.827V8.60828C31.827 7.78739 31.3544 7.41425 30.5584 7.41425C29.9365 7.41425 29.1653 7.58838 28.5186 7.91176L27.9713 6.59336C28.6678 6.09584 29.7624 5.77246 30.7325 5.77246C32.623 5.77246 33.6678 6.76749 33.6678 8.68291V13.3844H32.2748L32.0758 12.7625C31.2798 13.3346 30.5335 13.5834 29.8867 13.5834C28.4439 13.5834 27.623 12.7128 27.623 11.2451C27.623 9.67793 28.6927 8.85704 30.7076 8.85704ZM31.8519 11.469V10.1008H30.9315C29.9116 10.1008 29.3892 10.474 29.3892 11.1953C29.3892 11.7426 29.6628 12.0162 30.2599 12.0162C30.8071 12.0411 31.5036 11.7675 31.8519 11.469Z" fill="#111111"/>
<path d="M39.6885 12.6136C38.992 14.4544 38.1711 15.7977 36.9522 16.544L35.7333 15.4246C36.4298 14.8027 36.9522 14.2057 37.3751 13.4097L34.7383 6.2206L36.7035 5.69822L38.395 11.5191L40.0617 5.67334L42.002 6.2206L39.6885 12.6136Z" fill="#111111"/>
</svg>
