<svg width="16" height="17" viewBox="0 0 16 17" fill="none" xmlns="http://www.w3.org/2000/svg">
<path d="M3.89552 3.54933C6.16246 1.28239 9.83792 1.28239 12.1049 3.54933C14.3718 5.81627 14.3718 9.49173 12.1049 11.7587L11.3135 12.5413C10.7303 13.1137 9.97352 13.8497 9.04292 14.7493C8.46146 15.3116 7.53892 15.3115 6.95752 14.7492L4.6301 12.4853C4.33759 12.1981 4.09274 11.9559 3.89552 11.7587C1.62858 9.49173 1.62858 5.81627 3.89552 3.54933ZM11.3977 4.25643C9.52132 2.38001 6.47904 2.38001 4.60262 4.25643C2.7262 6.13285 2.7262 9.17513 4.60262 11.0515L5.594 12.0299C6.13994 12.5641 6.82626 13.2311 7.65272 14.0304C7.84652 14.2178 8.15399 14.2179 8.34786 14.0305L10.6111 11.8295C10.9237 11.5226 11.186 11.2633 11.3977 11.0515C13.2741 9.17513 13.2741 6.13285 11.3977 4.25643ZM8.00019 5.83643C9.10532 5.83643 10.0012 6.73232 10.0012 7.83747C10.0012 8.9426 9.10532 9.83847 8.00019 9.83847C6.89506 9.83847 5.99914 8.9426 5.99914 7.83747C5.99914 6.73232 6.89506 5.83643 8.00019 5.83643ZM8.00019 6.83643C7.44732 6.83643 6.99912 7.2846 6.99912 7.83747C6.99912 8.39033 7.44732 8.83847 8.00019 8.83847C8.55306 8.83847 9.00119 8.39033 9.00119 7.83747C9.00119 7.2846 8.55306 6.83643 8.00019 6.83643Z" fill="#999999"/>
</svg>
