<svg width="65" height="64" viewBox="0 0 65 64" fill="none" xmlns="http://www.w3.org/2000/svg">
<g clip-path="url(#clip0_500_3114)">
<path d="M46.981 56.9516L29.9917 29.837C29.8816 29.6613 29.6698 29.5757 29.4729 29.6405C27.8505 30.1742 25.0073 31.9321 27.0154 39.1061C29.2896 47.2308 39.9838 54.5057 46.4119 57.6058C46.8289 57.8069 47.2268 57.3439 46.981 56.9516Z" fill="url(#paint0_linear_500_3114)"/>
<path d="M59.49 39.4655L28.6602 30.9001C28.4605 30.8446 28.3181 30.666 28.3241 30.4588C28.3738 28.7515 29.2494 25.5255 36.6982 25.4077C45.1341 25.2743 55.1529 33.4544 59.955 38.7337C60.2665 39.0762 59.936 39.5894 59.49 39.4655Z" fill="url(#paint1_linear_500_3114)"/>
<path fill-rule="evenodd" clip-rule="evenodd" d="M18.3371 7.69713C16.9729 8.21885 10.6044 13.8862 18.0553 23.072C20.7458 26.389 23.9353 28.5528 26.2561 30.1274C26.5873 30.3521 26.9009 30.5648 27.1928 30.7672C28.7283 31.8318 30 30.6601 30.3166 30.033C30.7773 29.1205 30.6732 28.2557 30.5252 27.0266C30.4117 26.084 30.2724 24.9271 30.3423 23.3701C30.3507 23.1835 30.3606 22.9834 30.3712 22.7714C30.5426 19.3301 30.8715 12.7255 27.1037 9.37228C23.0151 5.73366 19.9136 7.036 18.5423 7.61179C18.4689 7.64261 18.4005 7.67134 18.3371 7.69713ZM25.9742 16.0777C25.1859 13.822 23.0887 11.53 21.2158 12.1475C18.8243 12.936 19.0505 15.7924 20.1392 18.5045C21.2279 21.2167 23.1822 23.164 25.254 22.207C26.9 21.4466 26.7625 18.3333 25.9742 16.0777Z" fill="#B04FD6"/>
<path fill-rule="evenodd" clip-rule="evenodd" d="M5.1477 27.3592C5.13882 25.899 8.10855 17.9104 19.3705 21.5182C24.0176 23.007 27.6584 25.1185 29.9419 26.8121C31.1561 27.7126 30.7744 29.8917 30.3049 30.4142C29.6218 31.1744 28.7783 31.3912 27.5794 31.6993C26.66 31.9356 25.5316 32.2256 24.1062 32.8556C23.9355 32.9311 23.7527 33.013 23.5589 33.0997C20.4148 34.508 14.3805 37.2107 9.88919 34.9175C5.01558 32.4292 5.10369 29.0675 5.14264 27.5813C5.14472 27.5017 5.14667 27.4275 5.1477 27.3592ZM15.7303 31.4303C13.3424 31.5134 10.4462 30.39 10.3427 28.4211C10.2106 25.9068 12.9546 25.0823 15.8767 25.1137C18.7989 25.145 21.3221 26.26 21.1812 28.5375C21.0693 30.3469 18.1181 31.3471 15.7303 31.4303Z" fill="url(#paint2_linear_500_3114)"/>
<circle cx="27.5318" cy="28.7907" r="0.944371" transform="rotate(75.223 27.5318 28.7907)" fill="#ECDCEF"/>
</g>
<defs>
<linearGradient id="paint0_linear_500_3114" x1="30.7836" y1="48.5745" x2="42.3368" y2="41.568" gradientUnits="userSpaceOnUse">
<stop offset="0.359748" stop-color="#E8D7EB"/>
<stop offset="0.944483" stop-color="#F3E9F5"/>
</linearGradient>
<linearGradient id="paint1_linear_500_3114" x1="60" y1="38.5" x2="32" y2="28" gradientUnits="userSpaceOnUse">
<stop offset="0.025" stop-color="#E9D8EC"/>
<stop offset="0.825" stop-color="#F3E9F5"/>
</linearGradient>
<linearGradient id="paint2_linear_500_3114" x1="9.20696" y1="40.9347" x2="18.0985" y2="21.2295" gradientUnits="userSpaceOnUse">
<stop offset="0.31" stop-color="#BE47DE"/>
<stop offset="0.92" stop-color="#DFA3EF"/>
</linearGradient>
<clipPath id="clip0_500_3114">
<rect width="64" height="64" fill="white" transform="translate(0.25)"/>
</clipPath>
</defs>
</svg>
