<svg width="65" height="64" viewBox="0 0 65 64" fill="none" xmlns="http://www.w3.org/2000/svg">
<g clip-path="url(#clip0_500_3127)">
<path d="M49.5461 51.5275V32.0164H28.5598C28.5234 32.0164 28.4869 32.0164 28.4505 32.0164C27.4501 32.0482 26.4903 32.323 25.6156 32.8008C25.5062 32.8565 25.4009 32.9202 25.2956 32.98C24.3723 33.5454 23.5461 34.3258 22.8617 35.2815C22.8171 35.3452 22.7766 35.4089 22.7321 35.4686L22.3919 36.0022C21.59 37.36 21.0554 38.9886 20.8934 40.7685C20.8772 40.9437 20.861 41.1229 20.8529 41.3021V41.318C20.7719 43.0342 21.0433 44.6707 21.5981 46.1121C21.667 46.2953 21.7439 46.4785 21.8249 46.6537C21.9869 47.02 22.1691 47.3704 22.3676 47.7049C22.4486 47.8522 22.5417 47.9876 22.6308 48.123C23.2585 49.0746 24.0361 49.8591 24.9149 50.4404C25.0121 50.5121 25.1174 50.5758 25.2187 50.6355C25.8464 51.0058 26.5227 51.2686 27.2396 51.412H27.2436C27.4542 51.4558 27.6688 51.4876 27.8875 51.5076C27.9523 51.5155 28.0252 51.5195 28.0981 51.5275C28.167 51.5314 28.2399 51.5314 28.3128 51.5314C28.3938 51.5354 28.4788 51.5314 28.5598 51.5314H49.5461V51.5275Z" fill="#9236AB"/>
<path d="M24.4046 36.5952L24.1494 36.9974H40.6769C40.7295 36.858 40.7821 36.7266 40.8348 36.5952H24.4046Z" fill="#B04FD6"/>
<path d="M23.0562 41.5723C23.0319 41.7037 23.0076 41.8351 22.9873 41.9705H39.8914C39.9035 41.8391 39.9197 41.7076 39.94 41.5723H23.0562Z" fill="#B04FD6"/>
<path d="M40.6841 46.8086C40.6517 46.721 40.6193 46.6374 40.5909 46.5498H24.0352C24.0595 46.6016 24.0878 46.6494 24.1162 46.6971L24.1486 46.7489C24.1891 46.8206 24.2336 46.8883 24.2781 46.952H40.7367C40.7205 46.9002 40.7003 46.8564 40.6841 46.8086Z" fill="#B04FD6"/>
<path d="M57.252 42.2299C57.0171 47.255 53.8177 51.2169 49.942 51.5275C49.7274 51.5474 49.5128 51.5554 49.2981 51.5434C49.2252 51.5434 49.1523 51.5434 49.0835 51.5395C49.0106 51.5315 48.9377 51.5275 48.8729 51.5195C48.6542 51.4996 48.4395 51.4678 48.229 51.424H48.2249C47.5081 51.2806 46.8318 51.0178 46.204 50.6475C46.1028 50.5878 45.9975 50.5241 45.9003 50.4524C45.4427 50.1498 45.0134 49.7914 44.6205 49.3813C44.5233 49.2857 44.4342 49.1902 44.3451 49.0866C44.086 48.792 43.8389 48.4734 43.6162 48.131C43.5271 47.9956 43.4339 47.8602 43.3529 47.7129C43.1545 47.3784 42.9722 47.028 42.8103 46.6617C42.7293 46.4865 42.6523 46.3033 42.5835 46.1201C42.0286 44.6787 41.7573 43.0382 41.8383 41.318V41.3021C41.8464 41.1229 41.8626 40.9437 41.8788 40.7685C42.0408 38.9847 42.5754 37.3561 43.3772 35.9943L43.7174 35.4607C43.762 35.401 43.8025 35.3373 43.847 35.2736C44.005 35.0506 44.1751 34.8356 44.3492 34.6325C44.4383 34.5289 44.5274 34.4294 44.6165 34.3338C45.1227 33.7963 45.6816 33.3344 46.281 32.972C46.3863 32.9083 46.4916 32.8446 46.6009 32.7889C47.4757 32.3111 48.4355 32.0363 49.4358 32.0045C49.5735 32.0005 49.7112 32.0005 49.8489 32.0045C49.9015 32.0045 49.9501 32.0084 50.0028 32.0084C50.2863 32.0244 50.5738 32.0642 50.8492 32.1239C54.6885 32.8844 57.4869 37.2048 57.252 42.2299Z" fill="url(#paint0_linear_500_3127)"/>
<path d="M39.6284 48.019L39.5839 47.9473C39.511 47.8398 39.4381 47.7323 39.3693 47.6089C39.1708 47.2744 38.9926 46.928 38.8387 46.5736C38.7577 46.4024 38.6808 46.2272 38.616 46.044C38.0571 44.5986 37.806 42.966 37.883 41.3056C37.8911 41.1304 37.9073 40.9552 37.9235 40.78C38.0773 39.0877 38.5876 37.4631 39.3895 36.0973L39.7216 35.5757C39.754 35.5319 39.7823 35.4921 39.8107 35.4483L39.8552 35.3846C40.2278 34.8669 40.6328 34.405 41.0742 34.0068H40.4951C40.1468 34.3533 39.8228 34.7395 39.5231 35.1576L39.4705 35.2293C39.4462 35.2651 39.4219 35.3049 39.3895 35.3487L39.0453 35.8903C38.2069 37.3158 37.6764 38.9921 37.5185 40.7441C37.5023 40.9233 37.4861 41.1065 37.478 41.3056C37.4699 41.5047 37.4658 41.7038 37.4658 41.9029C37.4658 43.3961 37.7291 44.8654 38.2353 46.1834C38.3082 46.3705 38.3851 46.5616 38.4661 46.7368C38.6281 47.0992 38.8144 47.4615 39.0169 47.804C39.0858 47.9314 39.1668 48.0469 39.2437 48.1663L39.2883 48.234C39.6041 48.7118 39.9524 49.1459 40.3331 49.5361H40.9082C40.4344 49.0981 40.0051 48.5924 39.6284 48.019Z" fill="#B04FD6"/>
<path d="M35.6138 48.019L35.5692 47.9473C35.4963 47.8398 35.4234 47.7323 35.3546 47.6089C35.1562 47.2744 34.978 46.928 34.8241 46.5736C34.7431 46.4024 34.6661 46.2272 34.6013 46.044C34.0425 44.5986 33.7914 42.966 33.8683 41.3056C33.8764 41.1304 33.8926 40.9552 33.9088 40.78C34.0627 39.0877 34.573 37.4631 35.3749 36.0973L35.7069 35.5757C35.7393 35.5319 35.7677 35.4921 35.796 35.4483L35.8406 35.3846C36.2132 34.8669 36.6182 34.405 37.0596 34.0068H36.4805C36.1322 34.3533 35.8082 34.7395 35.5085 35.1576L35.4558 35.2293C35.4315 35.2651 35.4072 35.3049 35.3749 35.3487L35.0306 35.8903C34.1923 37.3158 33.6618 38.9921 33.5038 40.7441C33.4876 40.9233 33.4714 41.1065 33.4633 41.3056C33.4552 41.5047 33.4512 41.7038 33.4512 41.9029C33.4512 43.3961 33.7144 44.8654 34.2206 46.1834C34.2935 46.3705 34.3705 46.5616 34.4515 46.7368C34.6135 47.0992 34.7998 47.4615 35.0023 47.804C35.0711 47.9314 35.1521 48.0469 35.2291 48.1663L35.2736 48.234C35.5895 48.7118 35.9378 49.1459 36.3185 49.5361H36.8935C36.4197 49.0981 35.9904 48.5924 35.6138 48.019Z" fill="#B04FD6"/>
<path opacity="0.3" d="M47.4164 41.3095C47.4083 41.1104 47.3921 40.9272 47.3759 40.748C47.2179 38.996 46.6874 37.3196 45.8491 35.8941L45.5049 35.3526C45.4725 35.3088 45.4482 35.269 45.4239 35.2332L45.3712 35.1615C45.1606 34.8668 44.9379 34.5921 44.703 34.3333C44.6139 34.4288 44.5248 34.5284 44.4357 34.6319C44.6463 34.8668 44.8447 35.1217 45.0391 35.3884L45.0837 35.4522C45.112 35.496 45.1404 35.5358 45.1728 35.5796L45.5049 36.1012C46.3067 37.467 46.817 39.0916 46.9709 40.7839C46.9871 40.9591 47.0033 41.1343 47.0114 41.3095C47.0883 42.9699 46.8373 44.6025 46.2784 46.0479C46.2136 46.231 46.1366 46.4062 46.0556 46.5775C45.9017 46.9319 45.7235 47.2783 45.5251 47.6128C45.4563 47.7362 45.3834 47.8437 45.3105 47.9512L45.2659 48.0229C45.0148 48.4091 44.7354 48.7635 44.4316 49.086C44.5207 49.1896 44.6098 49.2851 44.707 49.3807C45.0351 49.0343 45.3307 48.652 45.6061 48.2379L45.6506 48.1702C45.7276 48.0508 45.8086 47.9353 45.8774 47.8079C46.0799 47.4654 46.2662 47.1031 46.4282 46.7407C46.5092 46.5655 46.5862 46.3744 46.6591 46.1872C47.1653 44.8693 47.4285 43.3999 47.4285 41.9067C47.4285 41.7077 47.4245 41.5086 47.4164 41.3095Z" fill="#CFB4D4"/>
<path opacity="0.3" d="M51.4303 41.3095C51.4222 41.1104 51.406 40.9272 51.3898 40.748C51.2318 38.996 50.7013 37.3197 49.863 35.8942L49.5187 35.3526C49.4863 35.3088 49.462 35.269 49.4377 35.2332L49.3851 35.1615C49.0854 34.7434 48.7614 34.3572 48.4131 34.0107H47.834C48.2754 34.4089 48.6804 34.8708 49.053 35.3885L49.0975 35.4522C49.1259 35.496 49.1542 35.5358 49.1866 35.5796L49.5187 36.1012C50.3206 37.467 50.8309 39.0916 50.9848 40.7839C51.001 40.9591 51.0172 41.1343 51.0253 41.3095C51.1022 42.9699 50.8511 44.6025 50.2922 46.0479C50.2274 46.2311 50.1505 46.4063 50.0695 46.5775C49.9156 46.9319 49.7374 47.2783 49.539 47.6128C49.4701 47.7362 49.3972 47.8437 49.3243 47.9512L49.2798 48.0229C48.9031 48.5963 48.4739 49.102 48 49.54H48.5751C48.9558 49.1498 49.3041 48.7157 49.62 48.2379L49.6645 48.1702C49.7415 48.0508 49.8225 47.9353 49.8913 47.8079C50.0938 47.4654 50.2801 47.1031 50.4421 46.7407C50.5231 46.5655 50.6 46.3744 50.6729 46.1873C51.1792 44.8693 51.4424 43.4 51.4424 41.9068C51.4424 41.7077 51.4383 41.5086 51.4303 41.3095Z" fill="#CFB4D4"/>
<path d="M31.6021 48.019L31.5575 47.9473C31.4846 47.8398 31.4117 47.7323 31.3429 47.6089C31.1444 47.2744 30.9662 46.928 30.8124 46.5736C30.7314 46.4024 30.6544 46.2272 30.5896 46.044C30.0307 44.5986 29.7796 42.966 29.8566 41.3056C29.8647 41.1304 29.8809 40.9552 29.8971 40.78C30.051 39.0877 30.5613 37.4631 31.3631 36.0973L31.6952 35.5757C31.7276 35.5319 31.756 35.4921 31.7843 35.4483L31.8289 35.3846C32.2015 34.8669 32.6064 34.405 33.0479 34.0068H32.4687C32.1205 34.3533 31.7965 34.7395 31.4968 35.1576L31.4441 35.2293C31.4198 35.2651 31.3955 35.3049 31.3631 35.3487L31.0189 35.8903C30.1806 37.3158 29.65 38.9921 29.4921 40.7441C29.4759 40.9233 29.4597 41.1065 29.4516 41.3056C29.4435 41.5047 29.4395 41.7038 29.4395 41.9029C29.4395 43.3961 29.7027 44.8654 30.2089 46.1834C30.2818 46.3705 30.3588 46.5616 30.4398 46.7368C30.6018 47.0992 30.7881 47.4615 30.9905 47.804C31.0594 47.9314 31.1404 48.0469 31.2173 48.1663L31.2619 48.234C31.5778 48.7118 31.9261 49.1459 32.3067 49.5361H32.8818C32.408 49.0981 31.9787 48.5924 31.6021 48.019Z" fill="#B04FD6"/>
<path d="M27.5874 48.019L27.5429 47.9473C27.47 47.8398 27.3971 47.7323 27.3282 47.6089C27.1298 47.2744 26.9516 46.928 26.7977 46.5736C26.7167 46.4024 26.6398 46.2272 26.575 46.044C26.0161 44.5986 25.765 42.966 25.8419 41.3056C25.85 41.1304 25.8662 40.9552 25.8824 40.78C26.0363 39.0877 26.5466 37.4631 27.3485 36.0973L27.6806 35.5757C27.713 35.5319 27.7413 35.4921 27.7697 35.4483L27.8142 35.3846C28.1868 34.8669 28.5918 34.405 29.0332 34.0068H28.4541C28.1058 34.3533 27.7818 34.7395 27.4821 35.1576L27.4295 35.2293C27.4052 35.2651 27.3809 35.3049 27.3485 35.3487L27.0042 35.8903C26.1659 37.3158 25.6354 38.9921 25.4775 40.7441C25.4613 40.9233 25.4451 41.1065 25.437 41.3056C25.4289 41.5047 25.4248 41.7038 25.4248 41.9029C25.4248 43.3961 25.688 44.8654 26.1943 46.1834C26.2672 46.3705 26.3441 46.5616 26.4251 46.7368C26.5871 47.0992 26.7734 47.4615 26.9759 47.804C27.0447 47.9314 27.1257 48.0469 27.2027 48.1663L27.2472 48.234C27.5631 48.7118 27.9114 49.1459 28.2921 49.5361H28.8672C28.3933 49.0981 27.9641 48.5924 27.5874 48.019Z" fill="#B04FD6"/>
<path d="M43.7181 35.4563L43.3779 35.9899C43.4387 35.8863 43.4994 35.7828 43.5642 35.6833C43.6169 35.6076 43.6655 35.532 43.7181 35.4563Z" fill="url(#paint1_linear_500_3127)"/>
<path opacity="0.3" d="M53.8299 36.5952H45.386L45.1309 36.9934H54.0689C53.996 36.858 53.915 36.7266 53.8299 36.5952Z" fill="#CFB4D4"/>
<path opacity="0.3" d="M55.0945 41.5723H44.0425C44.0182 41.7037 43.9939 41.8351 43.9736 41.9705H55.1553C55.1391 41.8351 55.1188 41.7037 55.0945 41.5723Z" fill="#CFB4D4"/>
<path opacity="0.3" d="M45.0137 46.5498C45.042 46.6056 45.0704 46.6573 45.1028 46.7091L45.1352 46.7648C45.1716 46.8285 45.2081 46.8883 45.2526 46.948H53.7047C53.7897 46.8206 53.8747 46.6892 53.9557 46.5498H45.0137Z" fill="#CFB4D4"/>
</g>
<g clip-path="url(#clip1_500_3127)">
<path d="M41.8215 32.8675V12.4695H20.8352C20.7987 12.4695 20.7623 12.4695 20.7258 12.4695C19.7255 12.5028 18.7657 12.79 17.891 13.2896C17.7816 13.3478 17.6763 13.4145 17.571 13.4769C16.6476 14.068 15.8215 14.8839 15.1371 15.883C15.0925 15.9496 15.052 16.0162 15.0075 16.0787L14.6673 16.6365C13.8654 18.056 13.3308 19.7586 13.1688 21.6194C13.1526 21.8026 13.1364 21.9899 13.1283 22.1773V22.1939C13.0473 23.9881 13.3187 25.699 13.8735 27.206C13.9423 27.3975 14.0193 27.589 14.1003 27.7721C14.2623 28.1551 14.4445 28.5214 14.643 28.8711C14.724 29.0251 14.8171 29.1667 14.9062 29.3082C15.5339 30.3031 16.3115 31.1232 17.1903 31.731C17.2875 31.8059 17.3928 31.8725 17.4941 31.935C18.1218 32.3221 18.7981 32.5969 19.5149 32.7467H19.519C19.7296 32.7925 19.9442 32.8258 20.1629 32.8466C20.2277 32.855 20.3006 32.8591 20.3735 32.8675C20.4424 32.8716 20.5153 32.8716 20.5882 32.8716C20.6692 32.8758 20.7542 32.8716 20.8352 32.8716H41.8215V32.8675Z" fill="url(#paint2_linear_500_3127)"/>
<path d="M16.6799 17.2571L16.4248 17.6775H32.9522C33.0049 17.5318 33.0575 17.3945 33.1102 17.2571H16.6799Z" fill="#B04FD6"/>
<path d="M15.3315 22.4607C15.3072 22.5981 15.2829 22.7354 15.2627 22.877H32.1668C32.1789 22.7396 32.1951 22.6022 32.2154 22.4607H15.3315Z" fill="#B04FD6"/>
<path d="M32.9605 27.9351C32.9281 27.8436 32.8957 27.7561 32.8673 27.6646H16.3115C16.3358 27.7187 16.3642 27.7686 16.3925 27.8186L16.4249 27.8727C16.4654 27.9476 16.51 28.0184 16.5545 28.085H33.0131C32.9969 28.0309 32.9767 27.9851 32.9605 27.9351Z" fill="#B04FD6"/>
<path d="M49.5294 23.1474C49.2945 28.401 46.0951 32.543 42.2194 32.8677C42.0047 32.8885 41.7901 32.8968 41.5755 32.8843C41.5026 32.8843 41.4297 32.8843 41.3608 32.8802C41.2879 32.8719 41.215 32.8677 41.1502 32.8594C40.9315 32.8386 40.7169 32.8053 40.5063 32.7595H40.5022C39.7854 32.6096 39.1091 32.3348 38.4814 31.9477C38.3801 31.8853 38.2748 31.8187 38.1776 31.7437C37.72 31.4273 37.2907 31.0527 36.8979 30.6239C36.8007 30.524 36.7116 30.4241 36.6225 30.3159C36.3633 30.0078 36.1163 29.6748 35.8935 29.3168C35.8044 29.1752 35.7113 29.0337 35.6303 28.8797C35.4318 28.53 35.2496 28.1637 35.0876 27.7807C35.0066 27.5975 34.9297 27.406 34.8608 27.2145C34.306 25.7076 34.0346 23.9925 34.1156 22.1941V22.1775C34.1237 21.9902 34.1399 21.8028 34.1561 21.6197C34.3181 19.7547 34.8527 18.0521 35.6546 16.6284L35.9948 16.0706C36.0393 16.0081 36.0798 15.9415 36.1244 15.8749C36.2823 15.6418 36.4524 15.417 36.6265 15.2047C36.7156 15.0965 36.8047 14.9924 36.8938 14.8925C37.4001 14.3305 37.9589 13.8476 38.5583 13.4688C38.6636 13.4022 38.7689 13.3356 38.8783 13.2773C39.753 12.7778 40.7128 12.4905 41.7132 12.4572C41.8508 12.4531 41.9885 12.4531 42.1262 12.4572C42.1789 12.4572 42.2275 12.4614 42.2801 12.4614C42.5636 12.478 42.8512 12.5197 43.1266 12.5821C46.9658 13.3772 49.7643 17.8939 49.5294 23.1474Z" fill="url(#paint3_linear_500_3127)"/>
<path d="M31.9048 29.2006L31.8603 29.1257C31.7874 29.0133 31.7145 28.9009 31.6456 28.7718C31.4472 28.4221 31.269 28.06 31.1151 27.6895C31.0341 27.5105 30.9571 27.3273 30.8923 27.1358C30.3335 25.6247 30.0824 23.9179 30.1593 22.182C30.1674 21.9989 30.1836 21.8157 30.1998 21.6325C30.3537 19.8633 30.864 18.1649 31.6659 16.737L31.998 16.1917C32.0304 16.1459 32.0587 16.1043 32.0871 16.0585L32.1316 15.9919C32.5042 15.4507 32.9092 14.9678 33.3506 14.5515H32.7715C32.4232 14.9137 32.0992 15.3175 31.7995 15.7546L31.7469 15.8295C31.7226 15.867 31.6983 15.9086 31.6659 15.9544L31.3216 16.5205C30.4833 18.0108 29.9528 19.7634 29.7948 21.5951C29.7786 21.7824 29.7624 21.9739 29.7543 22.182C29.7462 22.3902 29.7422 22.5983 29.7422 22.8065C29.7422 24.3675 30.0054 25.9036 30.5117 27.2815C30.5846 27.4772 30.6615 27.677 30.7425 27.8602C30.9045 28.239 31.0908 28.6178 31.2933 28.9758C31.3621 29.109 31.4431 29.2297 31.5201 29.3546L31.5646 29.4254C31.8805 29.9249 32.2288 30.3787 32.6095 30.7866H33.1846C32.7107 30.3287 32.2814 29.8 31.9048 29.2006Z" fill="#B04FD6"/>
<path d="M27.8902 29.2006L27.8456 29.1257C27.7727 29.0133 27.6998 28.9009 27.631 28.7718C27.4325 28.4221 27.2543 28.06 27.1004 27.6895C27.0194 27.5105 26.9425 27.3273 26.8777 27.1358C26.3188 25.6247 26.0677 23.9179 26.1447 22.182C26.1528 21.9989 26.169 21.8157 26.1852 21.6325C26.3391 19.8633 26.8493 18.1649 27.6512 16.737L27.9833 16.1917C28.0157 16.1459 28.0441 16.1043 28.0724 16.0585L28.117 15.9919C28.4895 15.4507 28.8945 14.9678 29.336 14.5515H28.7568C28.4085 14.9137 28.0846 15.3175 27.7849 15.7546L27.7322 15.8295C27.7079 15.867 27.6836 15.9086 27.6512 15.9544L27.307 16.5205C26.4687 18.0108 25.9381 19.7634 25.7802 21.5951C25.764 21.7824 25.7478 21.9739 25.7397 22.182C25.7316 22.3902 25.7275 22.5983 25.7275 22.8065C25.7275 24.3675 25.9908 25.9036 26.497 27.2815C26.5699 27.4772 26.6469 27.677 26.7279 27.8602C26.8898 28.239 27.0761 28.6178 27.2786 28.9758C27.3475 29.109 27.4285 29.2297 27.5054 29.3546L27.55 29.4254C27.8659 29.9249 28.2141 30.3787 28.5948 30.7866H29.1699C28.6961 30.3287 28.2668 29.8 27.8902 29.2006Z" fill="#B04FD6"/>
<path d="M39.6927 22.1859C39.6846 21.9778 39.6684 21.7863 39.6522 21.5989C39.4943 19.7673 38.9638 18.0147 38.1255 16.5244L37.7812 15.9583C37.7488 15.9125 37.7245 15.8708 37.7002 15.8334L37.6476 15.7585C37.437 15.4504 37.2142 15.1632 36.9793 14.8926C36.8903 14.9925 36.8012 15.0966 36.7121 15.2048C36.9226 15.4504 37.1211 15.7168 37.3155 15.9957L37.36 16.0623C37.3884 16.1081 37.4167 16.1498 37.4491 16.1956L37.7812 16.7409C38.5831 18.1687 39.0934 19.8672 39.2473 21.6364C39.2635 21.8196 39.2797 22.0027 39.2878 22.1859C39.3647 23.9218 39.1136 25.6286 38.5547 27.1397C38.4899 27.3312 38.413 27.5143 38.332 27.6934C38.1781 28.0638 37.9999 28.426 37.8015 28.7757C37.7326 28.9047 37.6597 29.0171 37.5868 29.1295L37.5423 29.2045C37.2912 29.6083 37.0117 29.9788 36.708 30.3159C36.7971 30.4242 36.8862 30.5241 36.9834 30.624C37.3114 30.2618 37.6071 29.8622 37.8825 29.4293L37.927 29.3585C38.004 29.2336 38.085 29.1129 38.1538 28.9797C38.3563 28.6217 38.5426 28.2428 38.7046 27.864C38.7856 27.6809 38.8625 27.481 38.9354 27.2854C39.4417 25.9075 39.7049 24.3714 39.7049 22.8103C39.7049 22.6022 39.7008 22.394 39.6927 22.1859Z" fill="#CFB4D4"/>
<path d="M43.7047 22.1857C43.6966 21.9775 43.6804 21.786 43.6642 21.5987C43.5062 19.7671 42.9757 18.0145 42.1374 16.5242L41.7931 15.9581C41.7607 15.9123 41.7364 15.8706 41.7121 15.8332L41.6595 15.7582C41.3598 15.3211 41.0358 14.9173 40.6875 14.5552H40.1084C40.5498 14.9715 40.9548 15.4544 41.3274 15.9955L41.3719 16.0621C41.4003 16.1079 41.4286 16.1495 41.461 16.1953L41.7931 16.7407C42.595 18.1685 43.1053 19.867 43.2592 21.6362C43.2754 21.8194 43.2916 22.0025 43.2997 22.1857C43.3766 23.9216 43.1255 25.6284 42.5667 27.1395C42.5019 27.331 42.4249 27.5141 42.3439 27.6931C42.19 28.0636 42.0118 28.4258 41.8134 28.7755C41.7445 28.9045 41.6716 29.0169 41.5987 29.1293L41.5542 29.2043C41.1776 29.8037 40.7483 30.3324 40.2744 30.7903H40.8495C41.2302 30.3823 41.5785 29.9286 41.8944 29.429L41.9389 29.3583C42.0159 29.2334 42.0969 29.1127 42.1657 28.9795C42.3682 28.6215 42.5545 28.2426 42.7165 27.8638C42.7975 27.6806 42.8744 27.4808 42.9473 27.2852C43.4536 25.9073 43.7168 24.3712 43.7168 22.8101C43.7168 22.602 43.7128 22.3938 43.7047 22.1857Z" fill="#CFB4D4"/>
<path d="M23.8775 29.2006L23.8329 29.1257C23.76 29.0133 23.6871 28.9009 23.6183 28.7718C23.4198 28.4221 23.2416 28.06 23.0877 27.6895C23.0067 27.5105 22.9298 27.3273 22.865 27.1358C22.3061 25.6247 22.055 23.9179 22.132 22.182C22.1401 21.9989 22.1563 21.8157 22.1725 21.6325C22.3264 19.8633 22.8367 18.1649 23.6385 16.737L23.9706 16.1917C24.003 16.1459 24.0314 16.1043 24.0597 16.0585L24.1043 15.9919C24.4768 15.4507 24.8818 14.9678 25.3233 14.5515H24.7441C24.3958 14.9137 24.0719 15.3175 23.7722 15.7546L23.7195 15.8295C23.6952 15.867 23.6709 15.9086 23.6385 15.9544L23.2943 16.5205C22.456 18.0108 21.9254 19.7634 21.7675 21.5951C21.7513 21.7824 21.7351 21.9739 21.727 22.182C21.7189 22.3902 21.7148 22.5983 21.7148 22.8065C21.7148 24.3675 21.9781 25.9036 22.4843 27.2815C22.5572 27.4772 22.6342 27.677 22.7152 27.8602C22.8772 28.239 23.0634 28.6178 23.2659 28.9758C23.3348 29.109 23.4158 29.2297 23.4927 29.3546L23.5373 29.4254C23.8532 29.9249 24.2015 30.3787 24.5821 30.7866H25.1572C24.6834 30.3287 24.2541 29.8 23.8775 29.2006Z" fill="#B04FD6"/>
<path d="M19.8638 29.2006L19.8192 29.1257C19.7463 29.0133 19.6734 28.9009 19.6046 28.7718C19.4062 28.4221 19.228 28.06 19.0741 27.6895C18.9931 27.5105 18.9161 27.3273 18.8513 27.1358C18.2925 25.6247 18.0414 23.9179 18.1183 22.182C18.1264 21.9989 18.1426 21.8157 18.1588 21.6325C18.3127 19.8633 18.823 18.1649 19.6249 16.737L19.9569 16.1917C19.9893 16.1459 20.0177 16.1043 20.046 16.0585L20.0906 15.9919C20.4632 15.4507 20.8682 14.9678 21.3096 14.5515H20.7305C20.3822 14.9137 20.0582 15.3175 19.7585 15.7546L19.7058 15.8295C19.6815 15.867 19.6572 15.9086 19.6249 15.9544L19.2806 16.5205C18.4423 18.0108 17.9118 19.7634 17.7538 21.5951C17.7376 21.7824 17.7214 21.9739 17.7133 22.182C17.7052 22.3902 17.7012 22.5983 17.7012 22.8065C17.7012 24.3675 17.9644 25.9036 18.4706 27.2815C18.5435 27.4772 18.6205 27.677 18.7015 27.8602C18.8635 28.239 19.0498 28.6178 19.2523 28.9758C19.3211 29.109 19.4021 29.2297 19.4791 29.3546L19.5236 29.4254C19.8395 29.9249 20.1878 30.3787 20.5685 30.7866H21.1435C20.6697 30.3287 20.2404 29.8 19.8638 29.2006Z" fill="#B04FD6"/>
<path d="M35.9945 16.0667L35.6543 16.6245C35.715 16.5162 35.7758 16.408 35.8406 16.3039C35.8932 16.2248 35.9418 16.1457 35.9945 16.0667Z" fill="url(#paint4_linear_500_3127)"/>
<path d="M46.1073 17.2571H37.6633L37.4082 17.6734H46.3462C46.2733 17.5318 46.1923 17.3945 46.1073 17.2571Z" fill="#CFB4D4"/>
<path d="M47.3699 22.4607H36.3179C36.2936 22.5981 36.2693 22.7354 36.249 22.877H47.4307C47.4145 22.7354 47.3942 22.5981 47.3699 22.4607Z" fill="#CFB4D4"/>
<path d="M37.29 27.6646C37.3184 27.7228 37.3467 27.7769 37.3791 27.8311L37.4115 27.8893C37.448 27.956 37.4844 28.0184 37.529 28.0808H45.981C46.0661 27.9476 46.1511 27.8103 46.2321 27.6646H37.29Z" fill="#CFB4D4"/>
</g>
<g clip-path="url(#clip2_500_3127)">
<path d="M36.9358 51.5275V32.0164H15.9495C15.913 32.0164 15.8766 32.0164 15.8401 32.0164C14.8398 32.0482 13.88 32.323 13.0052 32.8008C12.8959 32.8565 12.7906 32.9202 12.6853 32.98C11.7619 33.5454 10.9357 34.3258 10.2513 35.2815C10.2068 35.3452 10.1663 35.4089 10.1217 35.4686L9.78153 36.0022C8.97966 37.36 8.44508 38.9886 8.28309 40.7685C8.26689 40.9437 8.25069 41.1229 8.24259 41.3021V41.318C8.16159 43.0342 8.43293 44.6707 8.98776 46.1121C9.05661 46.2953 9.13355 46.4785 9.21455 46.6537C9.37655 47.02 9.55879 47.3704 9.75723 47.7049C9.83823 47.8522 9.93137 47.9876 10.0205 48.123C10.6482 49.0746 11.4258 49.8591 12.3046 50.4404C12.4018 50.5121 12.5071 50.5758 12.6083 50.6355C13.2361 51.0058 13.9124 51.2686 14.6292 51.412H14.6333C14.8438 51.4558 15.0585 51.4876 15.2772 51.5076C15.342 51.5155 15.4149 51.5195 15.4878 51.5275C15.5566 51.5314 15.6295 51.5314 15.7024 51.5314C15.7834 51.5354 15.8685 51.5314 15.9495 51.5314H36.9358V51.5275Z" fill="url(#paint5_linear_500_3127)"/>
<path d="M11.7942 36.5952L11.5391 36.9974H28.0665C28.1191 36.858 28.1718 36.7266 28.2244 36.5952H11.7942Z" fill="#B04FD6"/>
<path d="M10.4458 41.5723C10.4215 41.7037 10.3972 41.8351 10.377 41.9705H27.281C27.2932 41.8391 27.3094 41.7076 27.3296 41.5723H10.4458Z" fill="#B04FD6"/>
<path d="M28.0737 46.8086C28.0413 46.721 28.0089 46.6374 27.9806 46.5498H11.4248C11.4491 46.6016 11.4775 46.6494 11.5058 46.6971L11.5382 46.7489C11.5787 46.8206 11.6232 46.8883 11.6678 46.952H28.1264C28.1102 46.9002 28.0899 46.8564 28.0737 46.8086Z" fill="#B04FD6"/>
<path d="M44.6417 42.2299C44.4068 47.255 41.2074 51.2169 37.3317 51.5275C37.117 51.5474 36.9024 51.5554 36.6878 51.5434C36.6149 51.5434 36.542 51.5434 36.4731 51.5395C36.4002 51.5315 36.3273 51.5275 36.2625 51.5195C36.0438 51.4996 35.8292 51.4678 35.6186 51.424H35.6146C34.8977 51.2806 34.2214 51.0178 33.5937 50.6475C33.4924 50.5878 33.3871 50.5241 33.2899 50.4524C32.8323 50.1498 32.403 49.7914 32.0102 49.3813C31.913 49.2857 31.8239 49.1902 31.7348 49.0866C31.4756 48.792 31.2286 48.4734 31.0058 48.131C30.9167 47.9956 30.8236 47.8602 30.7426 47.7129C30.5441 47.3784 30.3619 47.028 30.1999 46.6617C30.1189 46.4865 30.042 46.3033 29.9731 46.1201C29.4183 44.6787 29.1469 43.0382 29.2279 41.318V41.3021C29.236 41.1229 29.2522 40.9437 29.2684 40.7685C29.4304 38.9847 29.965 37.3561 30.7669 35.9943L31.1071 35.4607C31.1516 35.401 31.1921 35.3373 31.2367 35.2736C31.3946 35.0506 31.5647 34.8356 31.7388 34.6325C31.8279 34.5289 31.917 34.4294 32.0061 34.3338C32.5124 33.7963 33.0712 33.3344 33.6706 32.972C33.7759 32.9083 33.8812 32.8446 33.9906 32.7889C34.8653 32.3111 35.8251 32.0363 36.8255 32.0045C36.9632 32.0005 37.1008 32.0005 37.2385 32.0045C37.2912 32.0045 37.3398 32.0084 37.3924 32.0084C37.6759 32.0244 37.9635 32.0642 38.2389 32.1239C42.0781 32.8844 44.8766 37.2048 44.6417 42.2299Z" fill="url(#paint6_linear_500_3127)"/>
<path d="M27.0171 48.019L26.9726 47.9473C26.8997 47.8398 26.8268 47.7323 26.7579 47.6089C26.5595 47.2744 26.3813 46.928 26.2274 46.5736C26.1464 46.4024 26.0694 46.2272 26.0046 46.044C25.4458 44.5986 25.1947 42.966 25.2716 41.3056C25.2797 41.1304 25.2959 40.9552 25.3121 40.78C25.466 39.0877 25.9763 37.4631 26.7782 36.0973L27.1103 35.5757C27.1427 35.5319 27.171 35.4921 27.1994 35.4483L27.2439 35.3846C27.6165 34.8669 28.0215 34.405 28.4629 34.0068H27.8838C27.5355 34.3533 27.2115 34.7395 26.9118 35.1576L26.8592 35.2293C26.8349 35.2651 26.8106 35.3049 26.7782 35.3487L26.4339 35.8903C25.5956 37.3158 25.0651 38.9921 24.9071 40.7441C24.8909 40.9233 24.8747 41.1065 24.8666 41.3056C24.8585 41.5047 24.8545 41.7038 24.8545 41.9029C24.8545 43.3961 25.1177 44.8654 25.624 46.1834C25.6969 46.3705 25.7738 46.5616 25.8548 46.7368C26.0168 47.0992 26.2031 47.4615 26.4056 47.804C26.4744 47.9314 26.5554 48.0469 26.6324 48.1663L26.6769 48.234C26.9928 48.7118 27.3411 49.1459 27.7218 49.5361H28.2969C27.823 49.0981 27.3937 48.5924 27.0171 48.019Z" fill="#B04FD6"/>
<path d="M23.0025 48.019L22.9579 47.9473C22.885 47.8398 22.8121 47.7323 22.7433 47.6089C22.5448 47.2744 22.3666 46.928 22.2127 46.5736C22.1317 46.4024 22.0548 46.2272 21.99 46.044C21.4311 44.5986 21.18 42.966 21.257 41.3056C21.2651 41.1304 21.2813 40.9552 21.2975 40.78C21.4514 39.0877 21.9617 37.4631 22.7635 36.0973L23.0956 35.5757C23.128 35.5319 23.1564 35.4921 23.1847 35.4483L23.2293 35.3846C23.6018 34.8669 24.0068 34.405 24.4483 34.0068H23.8691C23.5208 34.3533 23.1969 34.7395 22.8972 35.1576L22.8445 35.2293C22.8202 35.2651 22.7959 35.3049 22.7635 35.3487L22.4193 35.8903C21.581 37.3158 21.0504 38.9921 20.8925 40.7441C20.8763 40.9233 20.8601 41.1065 20.852 41.3056C20.8439 41.5047 20.8398 41.7038 20.8398 41.9029C20.8398 43.3961 21.1031 44.8654 21.6093 46.1834C21.6822 46.3705 21.7592 46.5616 21.8402 46.7368C22.0022 47.0992 22.1884 47.4615 22.3909 47.804C22.4598 47.9314 22.5408 48.0469 22.6177 48.1663L22.6623 48.234C22.9782 48.7118 23.3265 49.1459 23.7071 49.5361H24.2822C23.8084 49.0981 23.3791 48.5924 23.0025 48.019Z" fill="#B04FD6"/>
<path d="M34.806 41.3095C34.7979 41.1104 34.7817 40.9272 34.7655 40.748C34.6076 38.996 34.0771 37.3196 33.2387 35.8941L32.8945 35.3526C32.8621 35.3088 32.8378 35.269 32.8135 35.2332L32.7609 35.1615C32.5503 34.8668 32.3275 34.5921 32.0926 34.3333C32.0035 34.4288 31.9144 34.5284 31.8253 34.6319C32.0359 34.8668 32.2344 35.1217 32.4288 35.3884L32.4733 35.4522C32.5017 35.496 32.53 35.5358 32.5624 35.5796L32.8945 36.1012C33.6964 37.467 34.2066 39.0916 34.3605 40.7839C34.3767 40.9591 34.3929 41.1343 34.401 41.3095C34.478 42.9699 34.2269 44.6025 33.668 46.0479C33.6032 46.231 33.5263 46.4062 33.4453 46.5775C33.2914 46.9319 33.1132 47.2783 32.9147 47.6128C32.8459 47.7362 32.773 47.8437 32.7001 47.9512L32.6556 48.0229C32.4045 48.4091 32.125 48.7635 31.8213 49.086C31.9104 49.1896 31.9995 49.2851 32.0967 49.3807C32.4247 49.0343 32.7204 48.652 32.9957 48.2379L33.0403 48.1702C33.1172 48.0508 33.1982 47.9353 33.2671 47.8079C33.4696 47.4654 33.6559 47.1031 33.8179 46.7407C33.8989 46.5655 33.9758 46.3744 34.0487 46.1872C34.5549 44.8693 34.8182 43.3999 34.8182 41.9067C34.8182 41.7077 34.8141 41.5086 34.806 41.3095Z" fill="#CFB4D4"/>
<path d="M38.8189 41.3095C38.8108 41.1104 38.7946 40.9272 38.7784 40.748C38.6205 38.996 38.09 37.3197 37.2516 35.8942L36.9074 35.3526C36.875 35.3088 36.8507 35.269 36.8264 35.2332L36.7737 35.1615C36.4741 34.7434 36.1501 34.3572 35.8018 34.0107H35.2227C35.6641 34.4089 36.0691 34.8708 36.4417 35.3885L36.4862 35.4522C36.5146 35.496 36.5429 35.5358 36.5753 35.5796L36.9074 36.1012C37.7093 37.467 38.2195 39.0916 38.3734 40.7839C38.3896 40.9591 38.4058 41.1343 38.4139 41.3095C38.4909 42.9699 38.2398 44.6025 37.6809 46.0479C37.6161 46.2311 37.5392 46.4063 37.4582 46.5775C37.3043 46.9319 37.1261 47.2783 36.9276 47.6128C36.8588 47.7362 36.7859 47.8437 36.713 47.9512L36.6685 48.0229C36.2918 48.5963 35.8625 49.102 35.3887 49.54H35.9638C36.3445 49.1498 36.6928 48.7157 37.0086 48.2379L37.0532 48.1702C37.1301 48.0508 37.2111 47.9353 37.28 47.8079C37.4825 47.4654 37.6688 47.1031 37.8308 46.7407C37.9118 46.5655 37.9887 46.3744 38.0616 46.1873C38.5678 44.8693 38.8311 43.4 38.8311 41.9068C38.8311 41.7077 38.827 41.5086 38.8189 41.3095Z" fill="#CFB4D4"/>
<path d="M18.9898 48.019L18.9452 47.9473C18.8723 47.8398 18.7994 47.7323 18.7306 47.6089C18.5321 47.2744 18.3539 46.928 18.2 46.5736C18.1191 46.4024 18.0421 46.2272 17.9773 46.044C17.4184 44.5986 17.1673 42.966 17.2443 41.3056C17.2524 41.1304 17.2686 40.9552 17.2848 40.78C17.4387 39.0877 17.949 37.4631 18.7508 36.0973L19.0829 35.5757C19.1153 35.5319 19.1437 35.4921 19.172 35.4483L19.2166 35.3846C19.5891 34.8669 19.9941 34.405 20.4356 34.0068H19.8564C19.5081 34.3533 19.1842 34.7395 18.8845 35.1576L18.8318 35.2293C18.8075 35.2651 18.7832 35.3049 18.7508 35.3487L18.4066 35.8903C17.5683 37.3158 17.0377 38.9921 16.8798 40.7441C16.8636 40.9233 16.8474 41.1065 16.8393 41.3056C16.8312 41.5047 16.8271 41.7038 16.8271 41.9029C16.8271 43.3961 17.0904 44.8654 17.5966 46.1834C17.6695 46.3705 17.7465 46.5616 17.8275 46.7368C17.9895 47.0992 18.1757 47.4615 18.3782 47.804C18.4471 47.9314 18.5281 48.0469 18.605 48.1663L18.6496 48.234C18.9655 48.7118 19.3138 49.1459 19.6944 49.5361H20.2695C19.7957 49.0981 19.3664 48.5924 18.9898 48.019Z" fill="#B04FD6"/>
<path d="M14.9761 48.019L14.9315 47.9473C14.8587 47.8398 14.7858 47.7323 14.7169 47.6089C14.5185 47.2744 14.3403 46.928 14.1864 46.5736C14.1054 46.4024 14.0284 46.2272 13.9636 46.044C13.4048 44.5986 13.1537 42.966 13.2306 41.3056C13.2387 41.1304 13.2549 40.9552 13.2711 40.78C13.425 39.0877 13.9353 37.4631 14.7372 36.0973L15.0692 35.5757C15.1016 35.5319 15.13 35.4921 15.1583 35.4483L15.2029 35.3846C15.5755 34.8669 15.9805 34.405 16.4219 34.0068H15.8428C15.4945 34.3533 15.1705 34.7395 14.8708 35.1576L14.8182 35.2293C14.7939 35.2651 14.7696 35.3049 14.7372 35.3487L14.3929 35.8903C13.5546 37.3158 13.0241 38.9921 12.8661 40.7441C12.8499 40.9233 12.8337 41.1065 12.8256 41.3056C12.8175 41.5047 12.8135 41.7038 12.8135 41.9029C12.8135 43.3961 13.0767 44.8654 13.5829 46.1834C13.6558 46.3705 13.7328 46.5616 13.8138 46.7368C13.9758 47.0992 14.1621 47.4615 14.3646 47.804C14.4334 47.9314 14.5144 48.0469 14.5914 48.1663L14.6359 48.234C14.9518 48.7118 15.3001 49.1459 15.6808 49.5361H16.2558C15.782 49.0981 15.3527 48.5924 14.9761 48.019Z" fill="#B04FD6"/>
<path d="M31.1078 35.4563L30.7676 35.9899C30.8283 35.8863 30.8891 35.7828 30.9539 35.6833C31.0065 35.6076 31.0551 35.532 31.1078 35.4563Z" fill="url(#paint7_linear_500_3127)"/>
<path d="M41.2206 36.5952H32.7766L32.5215 36.9934H41.4595C41.3866 36.858 41.3056 36.7266 41.2206 36.5952Z" fill="#CFB4D4"/>
<path d="M42.4822 41.5723H31.4302C31.4059 41.7037 31.3816 41.8351 31.3613 41.9705H42.543C42.5268 41.8351 42.5065 41.7037 42.4822 41.5723Z" fill="#CFB4D4"/>
<path d="M32.4043 46.5498C32.4326 46.6056 32.461 46.6573 32.4934 46.7091L32.5258 46.7648C32.5622 46.8285 32.5987 46.8883 32.6432 46.948H41.0953C41.1803 46.8206 41.2654 46.6892 41.3464 46.5498H32.4043Z" fill="#CFB4D4"/>
</g>
<defs>
<linearGradient id="paint0_linear_500_3127" x1="57.2658" y1="41.7753" x2="38.7261" y2="42.0778" gradientUnits="userSpaceOnUse">
<stop offset="0.622605" stop-color="#E8D7EB"/>
<stop offset="0.94" stop-color="#F3E9F5"/>
</linearGradient>
<linearGradient id="paint1_linear_500_3127" x1="43.3779" y1="35.7231" x2="43.7181" y2="35.7231" gradientUnits="userSpaceOnUse">
<stop offset="0.36" stop-color="#E8D7EB"/>
<stop offset="0.94" stop-color="#F3E9F5"/>
</linearGradient>
<linearGradient id="paint2_linear_500_3127" x1="27.4688" y1="33.2837" x2="27.4688" y2="12.2489" gradientUnits="userSpaceOnUse">
<stop offset="0.08" stop-color="#BE47DE"/>
<stop offset="0.92" stop-color="#DFA3EF"/>
</linearGradient>
<linearGradient id="paint3_linear_500_3127" x1="36.0798" y1="27.1604" x2="48.6585" y2="17.8529" gradientUnits="userSpaceOnUse">
<stop offset="0.36" stop-color="#E8D7EB"/>
<stop offset="0.94" stop-color="#F3E9F5"/>
</linearGradient>
<linearGradient id="paint4_linear_500_3127" x1="35.6543" y1="16.3456" x2="35.9945" y2="16.3456" gradientUnits="userSpaceOnUse">
<stop offset="0.36" stop-color="#E8D7EB"/>
<stop offset="0.94" stop-color="#F3E9F5"/>
</linearGradient>
<linearGradient id="paint5_linear_500_3127" x1="22.5831" y1="51.9257" x2="22.5831" y2="31.8053" gradientUnits="userSpaceOnUse">
<stop offset="0.08" stop-color="#BE47DE"/>
<stop offset="0.92" stop-color="#DFA3EF"/>
</linearGradient>
<linearGradient id="paint6_linear_500_3127" x1="31.1921" y1="46.0684" x2="43.3702" y2="36.6477" gradientUnits="userSpaceOnUse">
<stop offset="0.36" stop-color="#E8D7EB"/>
<stop offset="0.94" stop-color="#F3E9F5"/>
</linearGradient>
<linearGradient id="paint7_linear_500_3127" x1="30.7676" y1="35.7231" x2="31.1078" y2="35.7231" gradientUnits="userSpaceOnUse">
<stop offset="0.36" stop-color="#E8D7EB"/>
<stop offset="0.94" stop-color="#F3E9F5"/>
</linearGradient>
<clipPath id="clip0_500_3127">
<rect width="36.4284" height="19.5469" fill="white" transform="translate(20.8398 32)"/>
</clipPath>
<clipPath id="clip1_500_3127">
<rect width="36.4284" height="20.4354" fill="white" transform="translate(13.1182 12.4531)"/>
</clipPath>
<clipPath id="clip2_500_3127">
<rect width="36.4284" height="19.5469" fill="white" transform="translate(8.23047 32)"/>
</clipPath>
</defs>
</svg>
