<svg width="46" height="48" viewBox="0 0 46 48" fill="none" xmlns="http://www.w3.org/2000/svg">
<g clip-path="url(#clip0_500_3181)">
<path d="M45.1366 16.907L45.1339 16.9029C43.5956 14.545 40.4372 13.8806 38.0793 15.4188L3.56036 37.9386C1.20248 39.4769 0.538037 42.6353 2.0763 44.9932L2.07897 44.9973C3.61723 47.3552 6.77568 48.0196 9.13356 46.4813L43.6525 23.9616C46.0104 22.4233 46.6748 19.2649 45.1366 16.907Z" fill="#B04FD6"/>
<path fill-rule="evenodd" clip-rule="evenodd" d="M37.6749 15.6838C37.7287 15.7425 37.7776 15.8011 37.8216 15.8696L40.2701 19.755C40.6171 20.3073 40.451 21.0453 39.8987 21.3923L20.6229 33.5325C20.0706 33.8795 19.3326 33.7134 18.9856 33.1611L16.6299 29.4174L37.6798 15.6838H37.6749Z" fill="url(#paint0_linear_500_3181)"/>
<path fill-rule="evenodd" clip-rule="evenodd" d="M29.313 1.40802C26.8937 -0.0337605 23.7658 0.762882 22.324 3.18214L1.24963 38.601C0.413885 40.0085 0.335687 41.6507 0.887961 43.0631C1.0297 43.6154 1.2594 44.1628 1.58197 44.6711C3.21435 47.2614 6.58665 48.0727 9.11831 46.4794C10.9413 45.3309 11.821 43.2538 11.5669 41.2108L31.0871 8.39697C32.5289 5.97772 31.7322 2.84979 29.313 1.40802Z" fill="url(#paint1_linear_500_3181)"/>
<path d="M8.2964 44.9939C9.16825 44.9939 9.87502 44.2871 9.87502 43.4153C9.87502 42.5434 9.16825 41.8367 8.2964 41.8367C7.42455 41.8367 6.71777 42.5434 6.71777 43.4153C6.71777 44.2871 7.42455 44.9939 8.2964 44.9939Z" fill="#ECDCEF"/>
</g>
<defs>
<linearGradient id="paint0_linear_500_3181" x1="21.4108" y1="35.8321" x2="32.9444" y2="18.4326" gradientUnits="userSpaceOnUse">
<stop offset="0.36" stop-color="#E8D7EB"/>
<stop offset="0.94" stop-color="#F3E9F5"/>
</linearGradient>
<linearGradient id="paint1_linear_500_3181" x1="-4.04829" y1="27.7412" x2="24.3376" y2="22.5655" gradientUnits="userSpaceOnUse">
<stop offset="0.31" stop-color="#BE47DE"/>
<stop offset="0.92" stop-color="#DFA3EF"/>
</linearGradient>
<clipPath id="clip0_500_3181">
<rect width="45.4282" height="46.6207" fill="white" transform="translate(0.536133 0.689697)"/>
</clipPath>
</defs>
</svg>
