<svg width="50" height="39" viewBox="0 0 50 39" fill="none" xmlns="http://www.w3.org/2000/svg">
<g clip-path="url(#clip0_500_3190)">
<path d="M33.6163 0.620525C31.2406 0.460346 28.9962 0.934951 27.0144 1.86636C29.9393 2.86897 31.8077 4.3699 31.8077 6.05475C31.8077 6.9387 31.2943 7.76926 30.387 8.5049C28.6918 9.87532 26.2564 9.71514 24.5313 8.37438C22.251 6.60055 19.3739 5.54455 16.2461 5.55642C9.23827 5.58608 3.31089 11.1746 2.94678 18.1334C2.54087 25.7983 8.67717 32.1402 16.2998 32.1402C20.9796 32.1402 25.0924 29.7435 27.486 26.1246C29.0917 26.8009 30.8526 27.1747 32.709 27.1747C40.0153 27.1747 45.9486 21.3548 46.0799 14.129C46.1934 7.12854 40.642 1.10106 33.6163 0.620525Z" fill="url(#paint0_linear_500_3190)"/>
<path d="M48.2525 16.2589H1.24534C0.684235 16.2589 0.224609 16.7097 0.224609 17.2674V17.8251C0.224609 18.3827 0.684235 18.8395 1.24534 18.8395L5.0656 28.5215C6.05051 31.025 7.75172 33.1073 9.87675 34.5727C10.4498 34.9702 10.8617 35.5516 11.0407 36.2219L11.2974 37.183C11.5601 38.15 12.4375 38.8263 13.4463 38.8263H36.9409C37.9497 38.8263 38.8332 38.15 39.0898 37.183L39.5793 35.3676C39.7345 34.7922 40.0509 34.2701 40.5105 33.8964C42.2177 32.4903 43.5906 30.6631 44.4322 28.5215L48.2525 18.8395C48.8136 18.8395 49.2732 18.3827 49.2732 17.8251V17.2674C49.2732 16.7097 48.8136 16.2529 48.2525 16.2529V16.2589Z" fill="url(#paint1_linear_500_3190)"/>
</g>
<defs>
<linearGradient id="paint0_linear_500_3190" x1="40.6361" y1="2.07993" x2="15.4292" y2="24.6946" gradientUnits="userSpaceOnUse">
<stop offset="0.36" stop-color="#E8D7EB"/>
<stop offset="0.94" stop-color="#F3E9F5"/>
</linearGradient>
<linearGradient id="paint1_linear_500_3190" x1="5.50135" y1="34.9939" x2="44.7804" y2="13.4395" gradientUnits="userSpaceOnUse">
<stop offset="0.31" stop-color="#BE47DE"/>
<stop offset="0.92" stop-color="#DFA3EF"/>
</linearGradient>
<clipPath id="clip0_500_3190">
<rect width="49.0486" height="38.2413" fill="white" transform="translate(0.225586 0.59082)"/>
</clipPath>
</defs>
</svg>
