<svg width="66" height="60" viewBox="0 0 66 60" fill="none" xmlns="http://www.w3.org/2000/svg">
<rect x="3.65625" y="27.5137" width="52.6611" height="31.315" rx="1.35631" fill="url(#paint0_linear_639_2989)"/>
<path fill-rule="evenodd" clip-rule="evenodd" d="M5.36473 27.028C4.7023 25.4126 4.53261 23.0704 5.36249 22.3556C6.6666 21.2325 9.57019 21.2536 9.57019 21.2536C9.57019 21.2536 9.58983 17.6424 9.72835 15.5507C9.78348 14.7182 11.1142 14.7741 11.4957 15.0723C12.0635 15.516 11.8608 21.8003 11.8608 21.8003L12.1822 22.7929C12.1822 22.7929 12.753 20.4783 13.3003 20.2493C13.8476 20.0202 15.1268 20.3706 15.0346 20.9173C14.9425 21.464 13.3061 25.7179 13.3061 25.7179C12.8169 27.3393 12.1467 28.0647 11.3653 28.4966L12.4469 39.562L7.93333 40.0426L7.08737 28.9666C6.3497 28.628 5.75947 27.9906 5.36473 27.028Z" fill="url(#paint1_linear_639_2989)"/>
<path fill-rule="evenodd" clip-rule="evenodd" d="M55.3928 30.0639C55.7361 29.0574 56.2108 27.3651 55.9663 27.0824C55.6212 26.6834 54.856 26.5506 54.3526 26.9436C53.8492 27.3365 51.5064 31.7008 51.4842 32.3532C51.4657 32.8955 51.5365 33.5108 51.7285 34.0958L47.4726 39.738L50.8754 42.7083L55.2214 36.4088C55.3524 36.3982 55.4874 36.3821 55.6267 36.36C58.8671 35.8476 63.4544 34.3821 63.733 33.4728C64.0117 32.5635 63.4353 30.5831 62.6287 30.333C61.9327 30.1171 57.7392 30.1601 55.638 30.3727C55.4695 30.3897 55.3381 30.2243 55.3928 30.0639Z" fill="url(#paint2_linear_639_2989)"/>
<path fill-rule="evenodd" clip-rule="evenodd" d="M5.93082 33.035L12.6405 32.3356C12.8031 32.3187 12.9488 32.4368 12.9647 32.5995C13.0287 33.2548 13.0725 33.842 13.1125 34.3762V34.3762C13.2542 36.2718 13.3459 37.4988 14.1076 38.7231C14.8961 39.9903 16.8507 40.488 19.6553 38.7231C20.497 38.1934 21.4734 37.3934 22.5005 36.5518L22.5005 36.5517C23.1567 36.0141 23.8336 35.4594 24.5093 34.9474C26.0719 33.4238 28.2039 32.4986 30.5266 32.4986C33.2234 32.4986 35.6633 33.7459 37.2531 35.729C37.718 36.2715 38.184 36.8807 38.6494 37.4892C39.9665 39.2111 41.279 40.9271 42.5498 41.1087C44.3647 41.368 45.6273 39.6791 47.2292 37.5363C47.4827 37.1972 47.7446 36.8468 48.0186 36.4909C48.1222 36.3564 48.3177 36.3377 48.4457 36.4494L53.5804 40.9292C53.6965 41.0306 53.7154 41.2042 53.6239 41.3283L53.5453 41.435C50.9825 44.9104 48.444 48.353 43.3101 49.001C42.3241 49.1254 41.339 49.0432 40.3762 48.8002L41.5657 56.8297H19.4875L20.9707 46.8179C17.0882 48.3932 13.0484 48.7333 10.5413 46.5823C7.25342 43.7614 6.10914 38.1375 5.66728 33.3544C5.65242 33.1936 5.77014 33.0517 5.93082 33.035Z" fill="url(#paint3_linear_639_2989)"/>
<rect x="31.7637" y="39.8184" width="4.56208" height="1.52069" rx="0.296026" fill="white"/>
<path d="M33.3819 33.8144C33.3819 34.1825 32.1085 34.4823 30.5376 34.4823C28.9668 34.4823 27.6934 34.2296 27.6934 33.8144C27.6934 33.3993 28.9668 33.2866 30.5376 33.2866C32.1085 33.2866 33.3819 33.4464 33.3819 33.8144Z" fill="#81249B"/>
<path fill-rule="evenodd" clip-rule="evenodd" d="M30.784 31.7879C34.0954 31.7879 36.9982 30.039 38.6192 27.4145C39.0067 27.565 39.428 27.6476 39.8686 27.6476C41.7745 27.6476 43.3196 26.1025 43.3196 24.1966C43.3196 22.2907 41.7745 20.7457 39.8686 20.7457C39.8466 20.7457 39.8247 20.7459 39.8028 20.7463C38.9507 16.5451 35.2367 13.3828 30.784 13.3828C26.332 13.3828 22.6184 16.5443 21.7656 20.7446C21.7597 20.7446 21.7538 20.7446 21.7478 20.7446C19.8419 20.7446 18.2969 22.2896 18.2969 24.1956C18.2969 26.1015 19.8419 27.6465 21.7478 27.6465C22.1735 27.6465 22.5811 27.5695 22.9576 27.4285C24.5803 30.0452 27.4786 31.7879 30.784 31.7879Z" fill="url(#paint4_linear_639_2989)"/>
<path d="M38.7458 26.3262C38.73 26.6043 39.0625 26.7396 39.2309 26.5178C40.5935 24.7233 41.405 22.3331 41.405 19.9408C41.405 14.223 36.7698 9.58789 31.0521 9.58789C25.3344 9.58789 20.6992 14.223 20.6992 19.9408C20.6992 21.12 20.6979 23.3614 22.2655 26.3113C22.4027 26.5696 22.7775 26.4775 22.7904 26.1853L22.9242 23.1456C22.9297 23.0197 23.0143 22.9111 23.1347 22.8739C23.7076 22.6973 25.4597 22.145 27.8178 21.2899C30.194 20.4282 32.6459 18.408 33.4547 17.7057C33.5983 17.581 33.8219 17.6162 33.9201 17.7791C34.3221 18.4466 35.3015 20.0019 36.2098 20.8956C37.1625 21.8331 38.3565 22.5872 38.78 22.8423C38.8764 22.9003 38.9338 23.0064 38.9275 23.1188L38.7458 26.3262Z" fill="#1C0820"/>
<circle cx="37.2125" cy="6.57721" r="3.55231" fill="url(#paint5_linear_639_2989)"/>
<ellipse cx="33.1511" cy="23.2378" rx="0.592051" ry="0.740064" transform="rotate(5.50833 33.1511 23.2378)" fill="#1C0820"/>
<circle cx="30.2488" cy="25.8345" r="0.296026" transform="rotate(5.50833 30.2488 25.8345)" fill="#CC7582" stroke="#CC7582" stroke-width="0.148013"/>
<ellipse cx="27.9694" cy="23.1817" rx="0.592051" ry="0.740064" transform="rotate(5.50833 27.9694 23.1817)" fill="#1C0820"/>
<path d="M29.3565 27.3759C29.3565 27.3759 29.925 27.7878 30.7421 27.6574C31.5379 27.5303 31.9267 27.0996 31.9267 27.0996" stroke="#CC7582" stroke-width="0.592051" stroke-linecap="round"/>
<path d="M3.65625 53.5356H56.3173V58.4874C56.3173 59.2365 55.7101 59.8437 54.961 59.8437H5.01256C4.26349 59.8437 3.65625 59.2365 3.65625 58.4874V53.5356Z" fill="url(#paint6_linear_639_2989)"/>
<path d="M3.65625 52.4917H56.3173V57.4435C56.3173 58.1925 55.7101 58.7998 54.961 58.7998H5.01256C4.26349 58.7998 3.65625 58.1925 3.65625 57.4435V52.4917Z" fill="url(#paint7_linear_639_2989)"/>
<ellipse cx="30.0038" cy="55.6641" rx="0.833885" ry="0.805724" fill="white"/>
<defs>
<linearGradient id="paint0_linear_639_2989" x1="29.9868" y1="27.5137" x2="29.9868" y2="53.3373" gradientUnits="userSpaceOnUse">
<stop stop-color="white"/>
<stop offset="1" stop-color="#EAD6EE"/>
</linearGradient>
<linearGradient id="paint1_linear_639_2989" x1="7.91076" y1="18.5274" x2="11.4902" y2="29.5252" gradientUnits="userSpaceOnUse">
<stop offset="0.500588" stop-color="#FFD0BC"/>
<stop offset="1" stop-color="#FFABAA"/>
</linearGradient>
<linearGradient id="paint2_linear_639_2989" x1="62.0302" y1="28.9682" x2="49.2009" y2="39.9536" gradientUnits="userSpaceOnUse">
<stop offset="0.324631" stop-color="#FFD0BC"/>
<stop offset="0.811767" stop-color="#FFABAA"/>
</linearGradient>
<linearGradient id="paint3_linear_639_2989" x1="29.4321" y1="32.3597" x2="29.4321" y2="55.9004" gradientUnits="userSpaceOnUse">
<stop offset="0.45" stop-color="#BE47DE"/>
<stop offset="0.7" stop-color="#BE47DE" stop-opacity="0.751267"/>
<stop offset="1" stop-color="#BE47DE" stop-opacity="0.3"/>
</linearGradient>
<linearGradient id="paint4_linear_639_2989" x1="25.8727" y1="14.4481" x2="30.8011" y2="34.3015" gradientUnits="userSpaceOnUse">
<stop offset="0.559839" stop-color="#FFD0BC"/>
<stop offset="0.953633" stop-color="#FFABAA"/>
</linearGradient>
<linearGradient id="paint5_linear_639_2989" x1="39.216" y1="1.69279" x2="35.8605" y2="10.1295" gradientUnits="userSpaceOnUse">
<stop stop-color="#1C0820" stop-opacity="0.4"/>
<stop offset="0.7" stop-color="#1C0820"/>
</linearGradient>
<linearGradient id="paint6_linear_639_2989" x1="3.65625" y1="56.6897" x2="56.3173" y2="56.6897" gradientUnits="userSpaceOnUse">
<stop stop-color="#E5A6F3"/>
<stop offset="1" stop-color="#E2B1ED"/>
</linearGradient>
<linearGradient id="paint7_linear_639_2989" x1="29.9868" y1="58.7998" x2="29.9868" y2="52.4917" gradientUnits="userSpaceOnUse">
<stop stop-color="#EAC9F1"/>
<stop offset="1" stop-color="#DDA9E7"/>
</linearGradient>
</defs>
</svg>
