<svg width="32" height="32" viewBox="0 0 32 32" fill="none" xmlns="http://www.w3.org/2000/svg">
<path fill-rule="evenodd" clip-rule="evenodd" d="M12.535 4.00453C14.0743 1.33638 17.9251 1.33638 19.4645 4.00453L29.2702 21.0012C30.8087 23.6679 28.8841 27.0001 25.8055 27.0001H6.19395C3.11532 27.0001 1.19075 23.6679 2.72921 21.0012L12.535 4.00453ZM16 11C16.5523 11 17 11.4477 17 12V17C17 17.5523 16.5523 18 16 18C15.4477 18 15 17.5523 15 17V12C15 11.4477 15.4477 11 16 11ZM16 22C16.5523 22 17 21.5523 17 21C17 20.4477 16.5523 20 16 20C15.4477 20 15 20.4477 15 21C15 21.5523 15.4477 22 16 22Z" fill="#BBBBBB"/>
</svg>
