<svg width="29" height="28" viewBox="0 0 29 28" fill="none" xmlns="http://www.w3.org/2000/svg">
<path fill-rule="evenodd" clip-rule="evenodd" d="M21.9133 6.59778C21.5831 6.26754 21.0477 6.26754 20.7174 6.59778L14.5113 12.8039L8.31076 6.60343C7.98053 6.27319 7.44511 6.27319 7.11487 6.60343C6.78463 6.93367 6.78463 7.46909 7.11487 7.79933L13.3154 13.9998L7.11487 20.2003C6.78463 20.5306 6.78463 21.066 7.11486 21.3962C7.4451 21.7265 7.98052 21.7265 8.31076 21.3962L14.5113 15.1957L20.7174 21.4019C21.0477 21.7321 21.5831 21.7321 21.9133 21.4019C22.2436 21.0716 22.2436 20.5362 21.9133 20.206L15.7072 13.9998L21.9133 7.79367C22.2436 7.46343 22.2436 6.92801 21.9133 6.59778Z" fill="#111111"/>
</svg>
