<svg width="60" height="60" viewBox="0 0 60 60" fill="none" xmlns="http://www.w3.org/2000/svg">
<rect width="60" height="60" rx="16" fill="white"/>
<path d="M32.623 27.9073C33.5627 27.9073 34.4795 27.8251 35.3506 27.6606C38.8784 26.9934 41.6884 25.0306 43.6958 21.8249C44.576 20.4151 44.8229 18.69 44.3679 17.0906C43.9244 15.5254 42.843 14.2184 41.4026 13.5056C40.4812 13.0531 35.6547 11.2024 31.0454 19.243C30.5264 20.1478 29.9869 21.2377 29.3444 22.5812C27.7211 22.2088 25.9812 21.5896 24.1704 20.7373C21.1342 19.3161 18.8661 17.6984 18.6078 17.511L18.3334 17.3191L15.4092 21.272L15.6858 21.4776C15.9076 21.6398 21.0862 25.4305 27.1724 27.1076C26.1961 29.0749 25.3387 30.6286 24.4905 31.9722C22.3368 35.3881 19.4949 38.6464 15.8024 41.9344L15.5464 42.1629L18.825 45.8415L19.081 45.6131C22.506 42.565 25.261 39.5306 27.5016 36.3363C27.7097 36.0393 27.9452 35.7811 28.199 35.5686L28.215 35.5526C28.6631 35.1847 29.269 35.0956 29.7994 35.3241L29.8108 35.3287H29.8177L29.8383 35.3401C30.2818 35.5412 30.4167 36.1124 30.0532 38.8406C29.7422 41.1941 29.269 44.7494 32.3304 46.4014C33.0689 46.7989 33.8668 47 34.7036 47C36.8756 47 39.2511 45.6953 41.7615 43.1225C42.2805 42.5901 42.8178 41.9869 43.3597 41.3289L43.5769 41.0638L39.7655 37.9426L39.5483 38.2077C37.0677 41.2283 35.2637 42.0326 34.7562 42.0646C34.6944 41.7173 34.7562 40.8536 34.9414 39.4849C35.2843 36.9007 35.8582 32.58 31.7839 30.816C31.5119 30.6949 31.2421 30.5898 30.9791 30.4984C31.3998 29.685 31.8251 28.8304 32.2709 27.9028C32.3898 27.905 32.5064 27.9073 32.623 27.9073ZM39.1162 17.9063C39.1802 17.9063 39.21 17.92 39.2191 17.9246C39.466 18.0434 39.5781 18.2696 39.6261 18.4295C39.7015 18.6969 39.6604 18.9802 39.5186 19.2064C38.3114 21.1326 36.7521 22.2933 34.7493 22.7549C34.9642 22.339 35.1494 21.994 35.3209 21.6924C37.0379 18.6969 38.5538 17.9063 39.1162 17.9063Z" fill="#B04FD6"/>
</svg>
