<svg width="20" height="20" viewBox="0 0 20 20" fill="none" xmlns="http://www.w3.org/2000/svg">
<path d="M6.77702 15C6.34252 15 5.95913 14.7158 5.83277 14.3001L4.69367 10.5525H3.63018C3.32505 10.5525 3.07769 10.3051 3.07769 10C3.07769 9.69487 3.32505 9.44751 3.63018 9.44751H4.35183L3.26382 5.86795C3.13253 5.43603 3.45572 5 3.90716 5C4.2072 5 4.47093 5.19879 4.55357 5.48722L5.68812 9.44751H7.9101L8.99654 5.74547C9.12623 5.30356 9.53168 5 9.99223 5C10.4528 5 10.8582 5.30356 10.9879 5.74548L12.0744 9.44751H14.3119L15.4307 5.49409C15.5134 5.20179 15.7802 5 16.084 5C16.5398 5 16.8662 5.44029 16.7336 5.87643L15.6482 9.44751H16.3698C16.675 9.44751 16.9223 9.69487 16.9223 10C16.9223 10.3051 16.675 10.5525 16.3698 10.5525H15.3063L14.1513 14.3094C14.0251 14.7199 13.6459 15 13.2164 15C12.787 15 12.4078 14.7199 12.2816 14.3094L11.1265 10.5525H8.87347L7.72036 14.3031C7.59301 14.7173 7.21037 15 6.77702 15ZM5.99889 10.5525L6.72919 13.1077H6.83796L7.5838 10.5525H5.99889ZM9.21532 9.44751H10.7847L10.0388 7.07182H9.94562L9.21532 9.44751ZM12.4007 10.5525L13.1465 13.1077H13.2553L13.9856 10.5525H12.4007Z" fill="#BBBBBB"/>
</svg>
