<svg width="384" height="121" viewBox="0 0 384 121" fill="none" xmlns="http://www.w3.org/2000/svg">
<path d="M60.7558 52.8588C64.0724 52.8588 67.3083 52.5685 70.3828 51.9878C82.8341 49.633 92.7516 42.7056 99.8367 31.3911C102.944 26.4153 103.815 20.3265 102.209 14.6814C100.644 9.15719 96.8268 4.54429 91.743 2.02816C88.4909 0.431387 71.456 -6.10087 55.1878 22.2782C53.356 25.4717 51.4516 29.3185 49.184 34.0604C43.4546 32.7459 37.3137 30.5604 30.9226 27.5524C20.2062 22.5362 12.2012 16.8265 11.2893 16.1653L10.321 15.4878L0 29.4395L0.976418 30.1653C1.75917 30.7378 20.0367 44.1169 41.5179 50.0362C38.0722 56.9798 35.0461 62.4636 32.0523 67.2056C24.4508 79.262 14.4203 90.762 1.38797 102.367L0.484174 103.173L12.0559 116.157L12.9597 115.351C25.0479 104.593 34.7718 93.883 42.68 82.6088C43.4143 81.5604 44.2455 80.6491 45.1412 79.8991L45.1977 79.8427C46.7793 78.5443 48.9177 78.2298 50.7899 79.0362L50.8302 79.0524H50.8544L50.9271 79.0927C52.4926 79.8024 52.9687 81.8185 51.6856 91.4475C50.5881 99.754 48.9177 112.302 59.7229 118.133C62.3294 119.536 65.1456 120.246 68.0991 120.246C75.7652 120.246 84.1495 115.641 93.0099 106.56C94.8417 104.681 96.738 102.552 98.6505 100.23L99.4171 99.2943L85.9651 88.2782L85.1985 89.2136C76.443 99.8749 70.0761 102.714 68.2847 102.827C68.0668 101.601 68.2847 98.5524 68.9383 93.7217C70.1488 84.6007 72.1742 69.3507 57.7943 63.1249C56.834 62.6975 55.8818 62.3266 54.9538 62.004C56.4386 59.133 57.9395 56.1169 59.5131 52.8427C59.9327 52.8507 60.3442 52.8588 60.7558 52.8588ZM83.6734 17.5604C83.8993 17.5604 84.0042 17.6088 84.0365 17.6249C84.908 18.0443 85.3034 18.8427 85.4729 19.4072C85.7392 20.3507 85.5939 21.3507 85.0936 22.1491C80.8329 28.9475 75.3294 33.0443 68.2605 34.6733C69.019 33.2056 69.6727 31.9878 70.2779 30.9233C76.3381 20.3507 81.6883 17.5604 83.6734 17.5604Z" fill="#B04FD6"/>
<path d="M158.659 90.0568C158.659 87.6528 158.359 85.3052 157.796 83.0702C154.678 70.3553 143.165 60.8896 129.492 60.8896C115.82 60.8896 104.288 70.3553 101.17 83.0702C100.607 85.3052 100.306 87.6528 100.306 90.0568C100.306 91.5781 100.419 93.0994 100.663 94.5643C100.945 96.3861 101.396 98.1703 101.997 99.8794C106.053 111.148 116.834 119.243 129.492 119.243C134.394 119.243 139.108 118.022 143.296 115.787C147.466 113.533 151.091 110.284 153.814 106.19C155.129 104.199 156.18 102.077 156.95 99.8794H139.69C137.042 102.64 133.38 104.218 129.492 104.218C125.605 104.218 121.886 102.546 119.313 99.8794C117.848 98.3957 116.74 96.5739 116.082 94.5643H158.303C158.547 93.0806 158.659 91.5781 158.659 90.0568ZM117.191 83.0702C119.613 78.8069 124.234 75.9146 129.492 75.9146C134.751 75.9146 139.352 78.8069 141.775 83.0702H117.191Z" fill="#B04FD6"/>
<path d="M293.926 79.2436V90.3808C293.926 96.0715 298.546 100.692 304.237 100.692H315.938V118.308H302.641C288.104 118.308 276.309 106.852 276.309 92.7473V38.1879H293.926V61.6456H327.338V79.2436H293.926Z" fill="#B04FD6"/>
<path d="M383.981 79.1477L358.721 100.596H384V118.194H332.54V100.596L357.781 79.1477H332.54V61.5309H384V79.1289L383.981 79.1477Z" fill="#B04FD6"/>
<path d="M205.086 61.6221V63.5002C201.424 61.8287 197.329 60.8896 193.029 60.8896C179.356 60.8896 167.843 70.3553 164.725 83.0702C164.162 85.3052 163.861 87.6528 163.861 90.0568C163.861 92.8552 164.256 95.5409 164.988 98.0952C168.482 110.284 179.732 119.243 193.029 119.243C197.254 119.243 201.367 118.341 205.086 116.632V118.266H222.684V61.6221H205.086ZM205.086 97.4754C205.011 97.6069 204.936 97.7383 204.842 97.8698C204.786 97.9449 204.748 98.02 204.692 98.0952C202.025 101.945 197.705 104.218 193.029 104.218C188.352 104.218 183.938 101.795 181.384 98.0952C179.807 95.8039 178.886 93.043 178.886 90.0568C178.886 87.5214 179.562 85.1361 180.746 83.0702C183.168 78.8069 187.77 75.9146 193.029 75.9146C198.287 75.9146 202.607 78.6191 205.086 82.657C205.161 82.7885 205.255 82.9387 205.33 83.0702C206.513 85.1361 207.19 87.5214 207.19 90.0568C207.19 92.5923 206.476 95.2592 205.086 97.4754Z" fill="#B04FD6"/>
<path d="M269.15 61.7375V79.3543H257.449C251.759 79.3543 247.138 83.9745 247.138 89.6652V118.4H229.522V87.2988C229.522 73.1941 241.316 61.7375 255.853 61.7375H269.15Z" fill="#B04FD6"/>
</svg>
